<svg xmlns="http://www.w3.org/2000/svg" xmlns:xlink="http://www.w3.org/1999/xlink" width="249.369" height="249.369" viewBox="0 0 249.369 249.369">
  <defs>
    <filter id="Ellipse_33" x="97.079" y="103.074" width="63.859" height="63.859" filterUnits="userSpaceOnUse">
      <feOffset dy="3" input="SourceAlpha"/>
      <feGaussianBlur stdDeviation="6" result="blur"/>
      <feFlood flood-color="#220382" flood-opacity="0.302"/>
      <feComposite operator="in" in2="blur"/>
      <feComposite in="SourceGraphic"/>
    </filter>
  </defs>
  <g id="Group_141" data-name="Group 141" transform="translate(-1362.05 -461.315)">
    <g id="Ellipse_32" data-name="Ellipse 32" transform="translate(1471.425 710.685) rotate(-128)" fill="#fff" stroke="#80819f" stroke-linecap="round" stroke-width="14" stroke-dasharray="400 600" opacity="0.27">
      <circle cx="88.827" cy="88.827" r="88.827" stroke="none"/>
      <circle cx="88.827" cy="88.827" r="81.827" fill="none"/>
    </g>
    <g id="Path_32" data-name="Path 32" transform="translate(1471.425 710.685) rotate(-128)" fill="none" stroke-linecap="round" stroke-dasharray="300 500">
      <path d="M88.827,0A88.827,88.827,0,1,1,0,88.827,88.827,88.827,0,0,1,88.827,0Z" stroke="none"/>
      <path d="M 88.82740020751953 0 C 137.8854064941406 0 177.6548004150391 39.76939392089844 177.6548004150391 88.82740020751953 C 177.6548004150391 137.8984680175781 137.841064453125 177.6759643554688 88.78828430175781 177.65478515625 C 88.77359008789062 177.65478515625 88.76377105712891 177.6547698974609 88.74908447265625 177.6547546386719 C 88.73785400390625 177.6547546386719 88.72100067138672 177.6547241210938 88.70973205566406 177.6547088623047 C 88.69590759277344 177.6546936035156 88.68386840820312 177.6546783447266 88.6700439453125 177.6546478271484 C 88.65839385986328 177.6546325683594 88.64110565185547 177.6546020507812 88.62940216064453 177.6545715332031 C 88.61251831054688 177.654541015625 88.60014343261719 177.6545104980469 88.58328247070312 177.6544647216797 C 88.56728363037109 177.6544189453125 88.55303955078125 177.6543731689453 88.5369873046875 177.6543273925781 C 88.52188110351562 177.6542816162109 88.51368713378906 177.6542510986328 88.49856567382812 177.6541900634766 C 88.48770141601562 177.6541595458984 88.46955871582031 177.6540832519531 88.458740234375 177.6540374755859 C 88.44536590576172 177.6539916992188 88.43308258056641 177.6539306640625 88.41971588134766 177.6538696289062 C 88.40544128417969 177.65380859375 88.39209747314453 177.6537475585938 88.37785339355469 177.6536712646484 C 88.36056518554688 177.6535949707031 88.34892272949219 177.6535339355469 88.33163452148438 177.6534423828125 C 88.31561279296875 177.6533508300781 88.30246734619141 177.6532745361328 88.28642272949219 177.6531829833984 C 88.27089691162109 177.6530914306641 88.26251220703125 177.6530303955078 88.24696350097656 177.6529388427734 C 88.23527526855469 177.6528625488281 88.21941375732422 177.6527557373047 88.20772552490234 177.6526794433594 C 88.19392395019531 177.652587890625 88.18315124511719 177.6525115966797 88.16934967041016 177.6524047851562 C 88.15599060058594 177.6523132324219 88.14208984375 177.6522064208984 88.12870788574219 177.652099609375 C 88.11318969726562 177.6519775390625 88.10003662109375 177.6518707275391 88.08448791503906 177.6517486572266 C 88.06891632080078 177.6516265869141 88.05168151855469 177.6514739990234 88.03608703613281 177.6513366699219 C 88.0218505859375 177.6512145996094 88.01124572753906 177.651123046875 87.99702453613281 177.6509857177734 C 87.98582458496094 177.6508941650391 87.96869659423828 177.6507263183594 87.95744323730469 177.6506195068359 C 87.94408416748047 177.6504974365234 87.9320068359375 177.6503753662109 87.91864776611328 177.6502380371094 C 87.90484619140625 177.6501007080078 87.89237213134766 177.6499786376953 87.87859344482422 177.6498260498047 C 87.86350250244141 177.6496734619141 87.85139465332031 177.6495361328125 87.83628845214844 177.6493682861328 C 87.81729888916016 177.649169921875 87.80451202392578 177.6490325927734 87.7855224609375 177.6488037109375 C 87.77336883544922 177.6486663818359 87.75843811035156 177.6484985351562 87.746337890625 177.6483459472656 C 87.735107421875 177.6482086181641 87.71804809570312 177.6480102539062 87.70681762695312 177.6478729248047 C 87.69261169433594 177.6476898193359 87.68132019042969 177.6475524902344 87.66709136962891 177.6473693847656 C 87.65287780761719 177.6471862792969 87.64118957519531 177.6470336914062 87.62697601318359 177.6468505859375 C 87.61487579345703 177.6466827392578 87.59816741943359 177.6464538574219 87.58606719970703 177.6463012695312 C 87.5675048828125 177.6460418701172 87.55365753173828 177.6458435058594 87.53511047363281 177.6455841064453 C 87.52088928222656 177.6453857421875 87.51119995117188 177.6452331542969 87.49699401855469 177.6450347900391 C 87.48408508300781 177.6448364257812 87.470703125 177.6446380615234 87.45779418945312 177.6444396972656 C 87.44445037841797 177.6442413330078 87.43154907226562 177.64404296875 87.41820526123047 177.6438446044922 C 87.40442657470703 177.6436309814453 87.39151763916016 177.6434173583984 87.37773895263672 177.6432037353516 C 87.36650848388672 177.6430206298828 87.34897613525391 177.6427307128906 87.33775329589844 177.6425476074219 C 87.3192138671875 177.6422424316406 87.30344390869141 177.6419830322266 87.28490447998047 177.6416625976562 C 87.27194213867188 177.6414489746094 87.25875091552734 177.6412200927734 87.24578094482422 177.6409912109375 C 87.23159027099609 177.6407470703125 87.2210693359375 177.6405639648438 87.20686340332031 177.6403045654297 C 87.19353485107422 177.6400604248047 87.18149566650391 177.6398468017578 87.16815185546875 177.6396026611328 C 87.15437316894531 177.6393585205078 87.14131927490234 177.6391143798828 87.12755584716797 177.6388549804688 C 87.11589050292969 177.6386260986328 87.09766387939453 177.6382904052734 87.08601379394531 177.6380615234375 C 87.06746673583984 177.6377105712891 87.05342864990234 177.6374359130859 87.03488922119141 177.6370697021484 C 87.02198028564453 177.6368103027344 87.00920867919922 177.6365509033203 86.99626159667969 177.6362915039062 C 86.98249053955078 177.6360168457031 86.97056579589844 177.6357727050781 86.95679473876953 177.6354827880859 C 86.94347381591797 177.6352081298828 86.93196105957031 177.6349639892578 86.91862487792969 177.6346893310547 C 86.90574645996094 177.6344146728516 86.89213562011719 177.6341247558594 86.87924194335938 177.6338500976562 C 86.86591339111328 177.6335601806641 86.85239410400391 177.6332702636719 86.83908081054688 177.6329803466797 C 86.82229614257812 177.6326141357422 86.80650329589844 177.6322631835938 86.78971862792969 177.6318817138672 C 86.77291107177734 177.6315002441406 86.76301574707031 177.6312713623047 86.74623870849609 177.6308898925781 C 86.73206329345703 177.6305694580078 86.72119140625 177.6303100585938 86.70700073242188 177.6299743652344 C 86.69625091552734 177.6297302246094 86.67885589599609 177.6293182373047 86.66806793212891 177.6290588378906 C 86.65477752685547 177.6287384033203 86.64206695556641 177.6284332275391 86.62875366210938 177.6281127929688 C 86.614990234375 177.6277770996094 86.60260009765625 177.6274719238281 86.5888671875 177.6271362304688 C 86.57121276855469 177.6266937255859 86.55502319335938 177.6262969970703 86.53739166259766 177.6258544921875 C 86.53739166259766 177.6258544921875 86.53505706787109 177.6257934570312 86.53505706787109 177.6257934570312 C 86.51612091064453 177.6253051757812 86.50038146972656 177.6249084472656 86.4814453125 177.6244201660156 C 86.46726989746094 177.6240539550781 86.45513916015625 177.6237335205078 86.44097137451172 177.6233520507812 C 86.42765808105469 177.6230010986328 86.41511535644531 177.6226654052734 86.40180206298828 177.622314453125 C 86.38848876953125 177.6219635009766 86.37611389160156 177.6216278076172 86.36281585693359 177.6212615966797 C 86.34951782226562 177.6208953857422 86.33665466308594 177.6205444335938 86.32335662841797 177.6201782226562 C 86.30918884277344 177.6197814941406 86.29487609863281 177.619384765625 86.28072357177734 177.6189880371094 C 86.26353454589844 177.6184997558594 86.24915313720703 177.6180877685547 86.23194885253906 177.6175994873047 C 86.21822357177734 177.6172027587891 86.20389556884766 177.6167907714844 86.19014739990234 177.6163940429688 C 86.17771148681641 177.6160278320312 86.16323089599609 177.6156005859375 86.15081024169922 177.615234375 C 86.13838195800781 177.6148681640625 86.12541961669922 177.6144866943359 86.11299133300781 177.6141052246094 C 86.09969329833984 177.6137084960938 86.08708953857422 177.6133270263672 86.07378387451172 177.6129302978516 C 86.06048583984375 177.6125183105469 86.04843902587891 177.6121520996094 86.03514099121094 177.6117401123047 C 86.01665496826172 177.6111755371094 86.00090026855469 177.6106719970703 85.98243713378906 177.6100921630859 C 85.97168731689453 177.6097564697266 85.95325469970703 177.6091766357422 85.94249725341797 177.6088256835938 C 85.92920684814453 177.6083984375 85.91557312011719 177.6079711914062 85.90227508544922 177.6075439453125 C 85.88985443115234 177.6071319580078 85.87548828125 177.6066741943359 85.86306762695312 177.6062622070312 C 85.84767150878906 177.6057586669922 85.83992004394531 177.6054992675781 85.82453918457031 177.6049957275391 C 85.81125640869141 177.6045532226562 85.79904174804688 177.6041412353516 85.78575897216797 177.6036987304688 C 85.76772308349609 177.6030883789062 85.75131225585938 177.6025238037109 85.7332763671875 177.6019134521484 C 85.71955871582031 177.6014404296875 85.70688629150391 177.6009979248047 85.69316864013672 177.6005249023438 C 85.67989349365234 177.6000671386719 85.66623687744141 177.5995941162109 85.6529541015625 177.59912109375 C 85.64012145996094 177.5986785888672 85.62725067138672 177.5982208251953 85.61440277099609 177.5977630615234 C 85.6015625 177.5973052978516 85.58845520019531 177.5968322753906 85.57562255859375 177.5963745117188 C 85.56234741210938 177.5959014892578 85.55033111572266 177.595458984375 85.53706359863281 177.5949859619141 C 85.51905059814453 177.5943298339844 85.50154876708984 177.5936889648438 85.48354339599609 177.593017578125 C 85.47027587890625 177.592529296875 85.45745086669922 177.592041015625 85.44416046142578 177.591552734375 C 85.43132781982422 177.591064453125 85.41827392578125 177.590576171875 85.40544128417969 177.590087890625 C 85.39215850830078 177.5895843505859 85.37911224365234 177.5890960693359 85.3658447265625 177.5885772705078 C 85.35004425048828 177.5879821777344 85.34249877929688 177.5876922607422 85.32669830322266 177.5870819091797 C 85.31298065185547 177.5865478515625 85.30207061767578 177.5861206054688 85.28839874267578 177.5855865478516 C 85.26995086669922 177.5848541259766 85.25566101074219 177.5842895507812 85.23724365234375 177.5835571289062 C 85.22267150878906 177.5829772949219 85.20920562744141 177.5824432373047 85.19467163085938 177.5818634033203 C 85.18182373046875 177.5813446044922 85.16726684570312 177.5807495117188 85.15444946289062 177.5802307128906 C 85.14204406738281 177.5797271728516 85.12932586669922 177.5792083740234 85.11693572998047 177.5787048339844 C 85.10408782958984 177.5781707763672 85.0908203125 177.5776214599609 85.0780029296875 177.5770874023438 C 85.06517791748047 177.5765533447266 85.05216979980469 177.5760192871094 85.03934478759766 177.5754852294922 C 85.02016448974609 177.5746765136719 85.00234222412109 177.5739135742188 84.98317718505859 177.5731048583984 C 84.96824645996094 177.5724639892578 84.95850372314453 177.5720520019531 84.94358062744141 177.5714111328125 C 84.93205261230469 177.5709075927734 84.91697692871094 177.5702667236328 84.90544891357422 177.5697631835938 C 84.89349365234375 177.5692443847656 84.87869262695312 177.5685882568359 84.86675262451172 177.5680694580078 C 84.85227203369141 177.5674285888672 84.84317016601562 177.5670318603516 84.82868957519531 177.5663909912109 C 84.81673431396484 177.5658569335938 84.80213165283203 177.5652160644531 84.79017639160156 177.5646820068359 C 84.77316284179688 177.5639190673828 84.75115203857422 177.5629272460938 84.73415374755859 177.5621490478516 C 84.72219848632812 177.5616149902344 84.70894622802734 177.5610046386719 84.69700622558594 177.5604553222656 C 84.6842041015625 177.5598754882812 84.67081451416016 177.5592651367188 84.65799713134766 177.5586700439453 C 84.64561462402344 177.5580902099609 84.63224792480469 177.5574798583984 84.61988067626953 177.5569000244141 C 84.60707092285156 177.5563049316406 84.59377288818359 177.5556793212891 84.58096313476562 177.5550689697266 C 84.56814575195312 177.5544738769531 84.55560302734375 177.5538787841797 84.54280090332031 177.5532684326172 C 84.52405548095703 177.5523834228516 84.50655364990234 177.5515441894531 84.48783874511719 177.5506439208984 C 84.47503662109375 177.5500335693359 84.46209716796875 177.5494079589844 84.44931030273438 177.5487823486328 C 84.43650817871094 177.5481567382812 84.42287445068359 177.5475006103516 84.41007232666016 177.546875 C 84.397705078125 177.5462646484375 84.38327026367188 177.5455474853516 84.37090301513672 177.5449371337891 C 84.35895538330078 177.5443572998047 84.34415435791016 177.5436248779297 84.33222198486328 177.5430297851562 C 84.32028198242188 177.5424346923828 84.30622100830078 177.5417327880859 84.29428100585938 177.5411224365234 C 84.27766418457031 177.540283203125 84.26395416259766 177.5395965576172 84.24736785888672 177.5387573242188 C 84.232421875 177.5379943847656 84.21367645263672 177.5370330810547 84.19874572753906 177.5362701416016 C 84.18430328369141 177.5355224609375 84.17420196533203 177.5350036621094 84.15972900390625 177.5342559814453 C 84.14866638183594 177.53369140625 84.13319396972656 177.5328826904297 84.12211608886719 177.5323028564453 C 84.107666015625 177.5315551757812 84.09746551513672 177.5310211181641 84.08301544189453 177.5302581787109 C 84.06941223144531 177.529541015625 84.05874633789062 177.5289764404297 84.04515075683594 177.5282592773438 C 84.02355194091797 177.5271148681641 84.00313568115234 177.5260162353516 83.98153686523438 177.5248565673828 C 83.96964263916016 177.5242156982422 83.96152496337891 177.5237731933594 83.94965362548828 177.5231323242188 C 83.93563079833984 177.5223846435547 83.92547607421875 177.5218200683594 83.91145324707031 177.5210571289062 C 83.90038299560547 177.5204620361328 83.88452911376953 177.5195922851562 83.87347412109375 177.5189819335938 C 83.86283111572266 177.5184020996094 83.84613800048828 177.5174713134766 83.83550262451172 177.5168914794922 C 83.82148742675781 177.51611328125 83.81111907958984 177.5155334472656 83.79710388183594 177.5147552490234 C 83.79323577880859 177.5145416259766 83.78917694091797 177.5143127441406 83.78530883789062 177.5140991210938 C 83.75577545166016 177.5124359130859 83.73016357421875 177.5110015869141 83.70063781738281 177.5093078613281 C 83.68706512451172 177.508544921875 83.67576599121094 177.5078887939453 83.66218566894531 177.5071105957031 C 83.6490478515625 177.5063629150391 83.63777160644531 177.5057220458984 83.62462615966797 177.5049591064453 C 83.61148071289062 177.5041961669922 83.59963226318359 177.5035095214844 83.58648681640625 177.5027465820312 C 83.57421112060547 177.5020294189453 83.56092834472656 177.5012512207031 83.54864501953125 177.5005340576172 C 83.54650115966797 177.5004119873047 83.54433441162109 177.5002899169922 83.54218292236328 177.5001525878906 C 83.50972747802734 177.4982452392578 83.47694396972656 177.4963073730469 83.44449615478516 177.4943695068359 C 83.43428802490234 177.4937591552734 83.42464447021484 177.4931793212891 83.41452026367188 177.4925689697266 C 83.40431976318359 177.4919586181641 83.38758087158203 177.4909515380859 83.37739562988281 177.4903411865234 C 83.36721801757812 177.4897155761719 83.34964752197266 177.4886474609375 83.33943939208984 177.488037109375 C 83.32630157470703 177.4872283935547 83.31468963623047 177.4865264892578 83.30155944824219 177.4857177734375 C 83.29812622070312 177.4855041503906 83.29468536376953 177.4852905273438 83.29125213623047 177.4850769042969 C 83.25881958007812 177.4830780029297 83.22817993164062 177.4811859130859 83.19575500488281 177.4791564941406 C 83.18601989746094 177.4785461425781 83.175048828125 177.4778594970703 83.16534423828125 177.4772491455078 C 83.15309906005859 177.4764709472656 83.14310455322266 177.4758453369141 83.13083648681641 177.4750671386719 C 83.12020874023438 177.4743957519531 83.10304260253906 177.4733123779297 83.09246063232422 177.4726409912109 C 83.07933044433594 177.4718017578125 83.06753540039062 177.4710388183594 83.05441284179688 177.4701995849609 C 83.05097961425781 177.4699859619141 83.04755401611328 177.4697570800781 83.04412841796875 177.4695434570312 C 83.01171875 177.4674530029297 82.98039245605469 177.4654235839844 82.94799041748047 177.4633178710938 C 82.93831634521484 177.4626770019531 82.92852783203125 177.4620361328125 82.91883850097656 177.4613952636719 C 82.90615844726562 177.4605712890625 82.89381408691406 177.4597473144531 82.88112640380859 177.4589233398438 C 82.86594390869141 177.4579162597656 82.85935974121094 177.4574737548828 82.84414672851562 177.4564666748047 C 82.83187866210938 177.4556427001953 82.81842803955078 177.4547576904297 82.80616760253906 177.4539337158203 C 82.80359649658203 177.4537658691406 82.80191040039062 177.4536437988281 82.79933929443359 177.4534759521484 C 82.76695251464844 177.4512939453125 82.73204040527344 177.4489440917969 82.69966125488281 177.4467315673828 C 82.69046783447266 177.4461059570312 82.67945098876953 177.4453582763672 82.67019653320312 177.4447174072266 C 82.65835571289062 177.4439086914062 82.64662933349609 177.443115234375 82.63479614257812 177.4422912597656 C 82.62213134765625 177.4414215087891 82.60967254638672 177.4405670166016 82.59698486328125 177.4396820068359 C 82.58468627929688 177.4388275146484 82.572021484375 177.4379577636719 82.55978393554688 177.4371032714844 C 82.55679321289062 177.4368896484375 82.55357360839844 177.4366607666016 82.55057525634766 177.4364471435547 C 82.50938415527344 177.4335784912109 82.46394348144531 177.4303741455078 82.42276763916016 177.4274444580078 C 82.41094207763672 177.4266052246094 82.39777374267578 177.4256591796875 82.38596343994141 177.4248046875 C 82.37165832519531 177.4237823486328 82.36388397216797 177.4232330322266 82.34955596923828 177.4221954345703 C 82.33772277832031 177.4213409423828 82.32384490966797 177.4203338623047 82.31204223632812 177.4194793701172 C 82.30990600585938 177.4193267822266 82.30801391601562 177.419189453125 82.30587005615234 177.4190368652344 C 82.26177978515625 177.4158325195312 82.21437072753906 177.412353515625 82.17029571533203 177.4090881347656 C 82.16104125976562 177.4084014892578 82.14774322509766 177.4074249267578 82.13849639892578 177.40673828125 C 82.12461090087891 177.4057006835938 82.11564636230469 177.405029296875 82.10176849365234 177.4039916992188 C 82.08745574951172 177.4029235839844 82.07937622070312 177.4023132324219 82.06504821777344 177.4012298583984 C 82.06333923339844 177.4011077880859 82.06137847900391 177.4009552001953 82.05966949462891 177.4008331298828 C 82.01267242431641 177.3972930908203 81.97183990478516 177.3941802978516 81.92485809326172 177.3905639648438 C 81.91188812255859 177.3895721435547 81.90349578857422 177.3889312744141 81.89045715332031 177.3879241943359 C 81.87699127197266 177.3868713378906 81.86875152587891 177.3862457275391 81.85531616210938 177.3851928710938 C 81.84146118164062 177.3841247558594 81.83187103271484 177.3833770751953 81.8179931640625 177.3822937011719 C 81.81671142578125 177.3821868896484 81.81550598144531 177.3820953369141 81.81422424316406 177.3820037841797 C 81.75551605224609 177.3774108886719 81.70230102539062 177.3731994628906 81.64362335205078 177.3685150146484 C 81.63060760498047 177.3674621582031 81.62068176269531 177.3666687011719 81.607666015625 177.3656158447266 C 81.59471130371094 177.3645782470703 81.58457946777344 177.36376953125 81.57155609130859 177.3627166748047 C 81.57027435302734 177.3626098632812 81.56931304931641 177.3625335693359 81.56803131103516 177.3624267578125 C 81.52110290527344 177.3586273193359 81.47651672363281 177.3549957275391 81.42960357666016 177.3511199951172 C 81.42960357666016 177.3511199951172 81.4295654296875 177.3511199951172 81.4295654296875 177.3511199951172 C 81.41698455810547 177.3500823974609 81.4061279296875 177.3491821289062 81.39360046386719 177.34814453125 C 81.38101959228516 177.3471069335938 81.37035369873047 177.3462219238281 81.35781097412109 177.3451690673828 C 81.34608459472656 177.3441925048828 81.33596038818359 177.3433532714844 81.32423400878906 177.3423767089844 C 81.32423400878906 177.3423767089844 81.32366180419922 177.3423309326172 81.32366180419922 177.3423309326172 C 81.26504516601562 177.3374176025391 81.2086181640625 177.3326416015625 81.15003204345703 177.32763671875 C 81.14917755126953 177.3275604248047 81.14826202392578 177.3274841308594 81.14740753173828 177.3274078369141 C 81.13568878173828 177.3264007568359 81.12655639648438 177.3256225585938 81.11484527587891 177.3246154785156 C 81.11356353759766 177.3244934082031 81.11279296875 177.3244323730469 81.11151123046875 177.3243255615234 C 81.09980010986328 177.3233184814453 81.09051513671875 177.322509765625 81.07880401611328 177.3215026855469 C 81.07837677001953 177.3214721679688 81.07698059082031 177.3213500976562 81.07655334472656 177.3213043212891 C 81.00626373291016 177.3152313232422 80.93932342529297 177.3093719482422 80.86908721923828 177.3031311035156 C 80.86780548095703 177.3030242919922 80.86672210693359 177.3029174804688 80.86544036865234 177.3028106689453 C 80.85373687744141 177.3017730712891 80.84397888183594 177.3009033203125 80.832275390625 177.2998504638672 C 80.832275390625 177.2998504638672 80.83164978027344 177.2998046875 80.83164978027344 177.2998046875 C 80.76142120361328 177.2935333251953 80.69175720214844 177.2872314453125 80.62156677246094 177.2808074951172 C 80.62156677246094 177.2808074951172 80.62126159667969 177.2807769775391 80.62126159667969 177.2807769775391 C 80.60956573486328 177.2797088623047 80.59893798828125 177.2787322998047 80.58724212646484 177.2776641845703 C 80.58681488037109 177.2776184082031 80.58546447753906 177.2774963378906 80.58504486083984 177.2774505615234 C 80.51486206054688 177.27099609375 80.44649505615234 177.2646331787109 80.37636566162109 177.2580108642578 C 80.37594604492188 177.2579650878906 80.37586975097656 177.2579650878906 80.37545013427734 177.2579193115234 C 80.36375427246094 177.2568206787109 80.35301971435547 177.2557983398438 80.34133148193359 177.2546997070312 C 80.34091186523438 177.2546539306641 80.34046936035156 177.2546081542969 80.34004974365234 177.2545776367188 C 76.16484069824219 176.8588409423828 72.07833099365234 176.1750640869141 68.09172821044922 175.2215423583984 C 64.34130859375 174.3159790039062 62.02925109863281 170.5449676513672 62.92636108398438 166.7903289794922 C 63.82479095458984 163.0301513671875 67.60134887695312 160.7102966308594 71.36147308349609 161.6087188720703 C 77.04364776611328 162.9664001464844 82.9200439453125 163.65478515625 88.82740020751953 163.65478515625 C 130.0873718261719 163.65478515625 163.65478515625 130.0873718261719 163.65478515625 88.82740020751953 C 163.65478515625 47.56742858886719 130.0873718261719 14 88.82740020751953 14 C 84.96140289306641 14 81.82740020751953 10.86601257324219 81.82740020751953 7 C 81.82740020751953 3.134002685546875 84.96140289306641 0 88.82740020751953 0 C 88.82740020751953 0 88.82740020751953 0 88.82740020751953 0 Z" stroke="none" fill="#220382"/>
    </g>
    <path id="Polygon_3" data-name="Polygon 3" d="M5.633,0l5.633,62.9H0Z" transform="matrix(0.574, 0.819, -0.819, 0.574, 1542.584, 548.012)" fill="#220382"/>
    <g transform="matrix(1, 0, 0, 1, 1362.05, 461.32)" filter="url(#Ellipse_33)">
      <g id="Ellipse_33-2" data-name="Ellipse 33" transform="matrix(0.99, -0.1, 0.1, 0.99, 115.08, 120.72)" fill="#220382" stroke="#fff" stroke-width="8">
        <circle cx="12.674" cy="12.674" r="12.674" stroke="none"/>
        <circle cx="12.674" cy="12.674" r="8.674" fill="none"/>
      </g>
    </g>
    <g id="Group_111" data-name="Group 111" transform="matrix(0.995, -0.105, 0.105, 0.995, 1410.458, 522.524)">
      <circle id="Ellipse_52" data-name="Ellipse 52" cx="3.5" cy="3.5" r="3.5" transform="translate(5.489 98.367)" fill="#b6acd6"/>
      <circle id="Ellipse_53" data-name="Ellipse 53" cx="3.5" cy="3.5" r="3.5" transform="translate(0.489 77.367)" fill="#b6acd6"/>
      <circle id="Ellipse_54" data-name="Ellipse 54" cx="4" cy="4" r="4" transform="translate(0.489 51.367)" fill="#b6acd6"/>
      <circle id="Ellipse_55" data-name="Ellipse 55" cx="3.5" cy="3.5" r="3.5" transform="translate(11.489 27.367)" fill="#b6acd6"/>
      <circle id="Ellipse_56" data-name="Ellipse 56" cx="4" cy="4" r="4" transform="translate(31.489 8.367)" fill="#b6acd6"/>
      <circle id="Ellipse_57" data-name="Ellipse 57" cx="3" cy="3" r="3" transform="translate(59.489 0.367)" fill="#b6acd6"/>
      <circle id="Ellipse_58" data-name="Ellipse 58" cx="3.5" cy="3.5" r="3.5" transform="translate(86.489 2.367)" fill="#b6acd6"/>
      <circle id="Ellipse_59" data-name="Ellipse 59" cx="4" cy="4" r="4" transform="translate(111.489 17.367)" fill="#b6acd6"/>
      <circle id="Ellipse_60" data-name="Ellipse 60" cx="4" cy="4" r="4" transform="translate(127.489 39.367)" fill="#b6acd6"/>
      <ellipse id="Ellipse_61" data-name="Ellipse 61" cx="3.5" cy="4" rx="3.5" ry="4" transform="translate(133.489 69.367)" fill="#b6acd6"/>
      <circle id="Ellipse_62" data-name="Ellipse 62" cx="4" cy="4" r="4" transform="translate(124.489 98.367)" fill="#b6acd6"/>
    </g>
  </g>
</svg>
