<svg xmlns="http://www.w3.org/2000/svg" xmlns:xlink="http://www.w3.org/1999/xlink" width="1516" height="1508" viewBox="0 0 1516 1508">
  <defs>
    <filter id="Ellipse_21" x="572" y="320" width="636" height="636" filterUnits="userSpaceOnUse">
      <feOffset dx="6" dy="6" input="SourceAlpha"/>
      <feGaussianBlur stdDeviation="6" result="blur"/>
      <feFlood flood-opacity="0.161"/>
      <feComposite operator="in" in2="blur"/>
      <feComposite in="SourceGraphic"/>
    </filter>
    <linearGradient id="linear-gradient" x1="-0.685" y1="0.5" x2="1.731" y2="0.5" gradientUnits="objectBoundingBox">
      <stop offset="0" stop-color="#8a68f3"/>
      <stop offset="1" stop-color="#220382"/>
    </linearGradient>
  </defs>
  <g id="Group_139" data-name="Group 139" transform="translate(-939 443)">
    <g id="Group_58" data-name="Group 58" transform="translate(863 -386)">
      <circle id="Ellipse_22" data-name="Ellipse 22" cx="632" cy="632" r="632" transform="translate(328 -57)" fill="#9d98ec"/>
      <g transform="matrix(1, 0, 0, 1, 76, -57)" filter="url(#Ellipse_21)">
        <circle id="Ellipse_21-2" data-name="Ellipse 21" cx="300" cy="300" r="300" transform="translate(584 332)" fill="#b5b1fb"/>
      </g>
    </g>
    <g id="Group_138" data-name="Group 138">
      <g id="g10" transform="translate(958 207.49)">
        <g id="g12" transform="translate(0)">
          <path id="path16" d="M649.922-97.938c-2.669,0-2.673-4.148,0-4.148s2.672,4.148,0,4.148" transform="translate(-293.922 560.798)" fill="#ecf4fb"/>
          <path id="path20" d="M604.533-441.664l26.123-31.5h16.824c3.959-5.435,7.891-10.9,11.87-16.318a5.8,5.8,0,0,1-4.4-5.629,5.8,5.8,0,0,1,5.8-5.8,5.8,5.8,0,0,1,4.99,2.843c3.881-5.132,7.84-10.188,11.943-15.106q1.093-1.31,2.205-2.6H602.3a6.265,6.265,0,0,0-6.265,6.265v30.082a6.265,6.265,0,0,0,6.265,6.265h9.5l-7.265,31.5m29.478-59.243a5.8,5.8,0,0,1,5.8,5.8,5.8,5.8,0,0,1-5.8,5.8,5.8,5.8,0,0,1-5.8-5.8,5.8,5.8,0,0,1,5.8-5.8" transform="translate(-265.537 525.178)" fill="#220382" opacity="0.2"/>
          <path id="path22" d="M559.906-473.161h65.385a6.264,6.264,0,0,0,6.263-6.265v-30.082a6.264,6.264,0,0,0-6.263-6.265H592.316q-1.114,1.292-2.205,2.6c-4.1,4.918-8.062,9.973-11.943,15.105a5.774,5.774,0,0,1,.809,2.957,5.8,5.8,0,0,1-5.8,5.8,5.794,5.794,0,0,1-1.4-.169c-3.98,5.422-7.911,10.883-11.87,16.318m40.011-27.746a5.8,5.8,0,0,1,5.8,5.8,5.8,5.8,0,0,1-5.8,5.8,5.8,5.8,0,0,1-5.8-5.8,5.8,5.8,0,0,1,5.8-5.8" transform="translate(-177.962 525.178)" fill="#220382" opacity="0.2"/>
          <path id="path24" d="M589.5-490.487a5.8,5.8,0,0,0,5.8-5.8,5.8,5.8,0,0,0-5.8-5.8,5.8,5.8,0,0,0-5.8,5.8,5.8,5.8,0,0,0,5.8,5.8" transform="translate(-167.541 526.356)" fill="#9dd3e0"/>
          <path id="path26" d="M613.461-490.657q3.169-4.316,6.391-8.586a5.8,5.8,0,0,0-4.99-2.843,5.8,5.8,0,0,0-5.8,5.8,5.8,5.8,0,0,0,4.4,5.629" transform="translate(-219.646 526.356)" fill="#ade0e5"/>
          <path id="path28" d="M609.716-490.713a5.8,5.8,0,0,0,5.8-5.8,5.774,5.774,0,0,0-.81-2.957q-3.226,4.262-6.391,8.586a5.8,5.8,0,0,0,1.4.169" transform="translate(-214.501 526.582)" fill="#9dd3e0"/>
          <path id="path30" d="M638.735-490.487a5.8,5.8,0,0,0,5.8-5.8,5.8,5.8,0,0,0-5.8-5.8,5.8,5.8,0,0,0-5.8,5.8,5.8,5.8,0,0,0,5.8,5.8" transform="translate(-270.26 526.356)" fill="#ade0e5"/>
          <path id="path32" d="M566.171-524.432H676.738A6.264,6.264,0,0,1,683-518.167v30.081a6.264,6.264,0,0,1-6.263,6.266H594.528l-26.121,31.5,7.264-31.5h-9.5a6.265,6.265,0,0,1-6.265-6.266v-30.081a6.265,6.265,0,0,1,6.265-6.265" transform="translate(-229.409 524.432)" fill="#220382"/>
          <path id="path34" d="M583.7-504.947a5.8,5.8,0,0,0,5.8,5.8,5.8,5.8,0,0,0,5.8-5.8,5.8,5.8,0,0,0-5.8-5.8,5.8,5.8,0,0,0-5.8,5.8" transform="translate(-167.541 525.611)" fill="#fff"/>
          <path id="path36" d="M608.316-504.947a5.8,5.8,0,0,0,5.8,5.8,5.8,5.8,0,0,0,5.8-5.8,5.8,5.8,0,0,0-5.8-5.8,5.8,5.8,0,0,0-5.8,5.8" transform="translate(-218.901 525.611)" fill="#fff"/>
          <path id="path38" d="M632.936-504.947a5.8,5.8,0,0,0,5.8,5.8,5.8,5.8,0,0,0,5.8-5.8,5.8,5.8,0,0,0-5.8-5.8,5.8,5.8,0,0,0-5.8,5.8" transform="translate(-270.26 525.611)" fill="#fff"/>
          <path id="path40" d="M824.036-441.664l-5.987-31.5H900.26a6.265,6.265,0,0,0,6.265-6.265v-30.082a6.265,6.265,0,0,0-6.265-6.265H789.693a6.264,6.264,0,0,0-6.265,6.265v30.082a6.264,6.264,0,0,0,6.265,6.265h9.5l24.843,31.5m-5.8-57.679a5.8,5.8,0,0,1,5.8,5.8,5.8,5.8,0,0,1-5.8,5.8,5.8,5.8,0,0,1-5.8-5.8,5.8,5.8,0,0,1,5.8-5.8m26.74,0a5.8,5.8,0,0,1,5.8,5.8,5.8,5.8,0,0,1-5.8,5.8,5.8,5.8,0,0,1-5.8-5.8,5.8,5.8,0,0,1,5.8-5.8m26.738,0a5.8,5.8,0,0,1,5.8,5.8,5.8,5.8,0,0,1-5.8,5.8,5.8,5.8,0,0,1-5.8-5.8,5.8,5.8,0,0,1,5.8-5.8" transform="translate(-695.701 525.178)" fill="#220382" opacity="0.2"/>
          <path id="path42" d="M815.938-489.047a5.8,5.8,0,0,0,5.8-5.8,5.8,5.8,0,0,0-5.8-5.8,5.8,5.8,0,0,0-5.8,5.8,5.8,5.8,0,0,0,5.8,5.8" transform="translate(-639.923 526.48)" fill="#ade0e5"/>
          <path id="path44" d="M840.558-489.047a5.8,5.8,0,0,0,5.8-5.8,5.8,5.8,0,0,0-5.8-5.8,5.8,5.8,0,0,0-5.8,5.8,5.8,5.8,0,0,0,5.8,5.8" transform="translate(-691.281 526.48)" fill="#ade0e5"/>
          <path id="path46" d="M865.178-489.047a5.8,5.8,0,0,0,5.8-5.8,5.8,5.8,0,0,0-5.8-5.8,5.8,5.8,0,0,0-5.8,5.8,5.8,5.8,0,0,0,5.8,5.8" transform="translate(-742.641 526.48)" fill="#ade0e5"/>
          <path id="path48" d="M789.694-524.432H900.26a6.265,6.265,0,0,1,6.265,6.265v30.081a6.265,6.265,0,0,1-6.265,6.266H818.049l5.987,31.5-24.841-31.5h-9.5a6.264,6.264,0,0,1-6.265-6.266v-30.081a6.264,6.264,0,0,1,6.265-6.265" transform="translate(-695.701 524.432)" fill="#220382"/>
          <path id="path50" d="M810.138-503.507a5.8,5.8,0,0,0,5.8,5.8,5.8,5.8,0,0,0,5.8-5.8,5.8,5.8,0,0,0-5.8-5.8,5.8,5.8,0,0,0-5.8,5.8" transform="translate(-639.923 525.735)" fill="#fff"/>
          <path id="path52" d="M834.758-503.507a5.8,5.8,0,0,0,5.8,5.8,5.8,5.8,0,0,0,5.8-5.8,5.8,5.8,0,0,0-5.8-5.8,5.8,5.8,0,0,0-5.8,5.8" transform="translate(-691.281 525.735)" fill="#fff"/>
          <path id="path54" d="M859.378-503.507a5.8,5.8,0,0,0,5.8,5.8,5.8,5.8,0,0,0,5.8-5.8,5.8,5.8,0,0,0-5.8-5.8,5.8,5.8,0,0,0-5.8,5.8" transform="translate(-742.641 525.735)" fill="#fff"/>
          <path id="path56" d="M382.754-223.774H493.32a6.264,6.264,0,0,0,6.265-6.263v-30.081a6.265,6.265,0,0,0-6.265-6.266H411.111l-36.667-31.5,17.809,31.5h-9.5a6.265,6.265,0,0,0-6.265,6.266v30.081a6.264,6.264,0,0,0,6.265,6.263M411.3-250.122a5.8,5.8,0,0,1,5.8,5.8,5.8,5.8,0,0,1-5.8,5.8,5.8,5.8,0,0,1-5.8-5.8,5.8,5.8,0,0,1,5.8-5.8m26.738,0a5.8,5.8,0,0,1,5.8,5.8,5.8,5.8,0,0,1-5.8,5.8,5.8,5.8,0,0,1-5.8-5.8,5.8,5.8,0,0,1,5.8-5.8m26.74,0a5.8,5.8,0,0,1,5.8,5.8,5.8,5.8,0,0,1-5.8,5.8,5.8,5.8,0,0,1-5.8-5.8,5.8,5.8,0,0,1,5.8-5.8" transform="translate(155.438 543.939)" fill="#220382" opacity="0.2"/>
          <path id="path58" d="M406.952-242.311a5.8,5.8,0,0,0,5.8-5.8,5.8,5.8,0,0,0-5.8-5.8,5.8,5.8,0,0,0-5.8,5.8,5.8,5.8,0,0,0,5.8,5.8" transform="translate(213.262 547.725)" fill="#9dd3e0"/>
          <path id="path60" d="M431.572-242.311a5.8,5.8,0,0,0,5.8-5.8,5.8,5.8,0,0,0-5.8-5.8,5.8,5.8,0,0,0-5.8,5.8,5.8,5.8,0,0,0,5.8,5.8" transform="translate(161.903 547.725)" fill="#9dd3e0"/>
          <path id="path62" d="M456.192-242.311a5.8,5.8,0,0,0,5.8-5.8,5.8,5.8,0,0,0-5.8-5.8,5.8,5.8,0,0,0-5.8,5.8,5.8,5.8,0,0,0,5.8,5.8" transform="translate(110.544 547.725)" fill="#9dd3e0"/>
          <path id="path64" d="M382.755-232.434H493.322a6.264,6.264,0,0,0,6.265-6.263V-268.78a6.265,6.265,0,0,0-6.265-6.263H411.113l-36.668-31.5,17.811,31.5h-9.5a6.265,6.265,0,0,0-6.265,6.263V-238.7a6.264,6.264,0,0,0,6.265,6.263" transform="translate(155.437 543.193)" fill="#220382"/>
          <path id="path66" d="M401.154-256.77a5.8,5.8,0,0,1,5.8-5.8,5.8,5.8,0,0,1,5.8,5.8,5.8,5.8,0,0,1-5.8,5.8,5.8,5.8,0,0,1-5.8-5.8" transform="translate(213.262 546.979)" fill="#fff"/>
          <path id="path68" d="M425.774-256.77a5.8,5.8,0,0,1,5.8-5.8,5.8,5.8,0,0,1,5.8,5.8,5.8,5.8,0,0,1-5.8,5.8,5.8,5.8,0,0,1-5.8-5.8" transform="translate(161.903 546.979)" fill="#fff"/>
          <path id="path70" d="M450.392-256.77a5.8,5.8,0,0,1,5.8-5.8,5.8,5.8,0,0,1,5.8,5.8,5.8,5.8,0,0,1-5.8,5.8,5.8,5.8,0,0,1-5.8-5.8" transform="translate(110.544 546.979)" fill="#fff"/>
          <path id="path72" d="M715.563-171.558c.72,17.4,1.583,39.03,2.631,56.411h-9.251c-1.038-17.376-1.893-39-2.605-56.4,3.69-.007,5.535-.009,9.225-.014" transform="translate(-423.642 554.816)" fill="#757c7f"/>
          <path id="path74" d="M639.955-171.571q36.543-.061,73.08-.127c.791,17.449,1.731,39.133,2.863,56.563H628.5c-1.048-17.381-1.912-39.014-2.631-56.411l14.082-.025" transform="translate(-333.952 554.804)" fill="#a5a9a8"/>
          <path id="path76" d="M888.445-164.4c-7.982,7.907-8.9,9.17-16.852,17.1-9.259-84.292-16.587-168.779-27.14-252.928-1.994-13.974,2.623-28.3,13.188-37.324,12.839,91.043,20.989,181.76,30.8,273.156" transform="translate(-743.409 531.912)" fill="#f6dce0"/>
          <path id="path78" d="M522.877-186.047c-7.982,7.907-16.852,17.1-16.852,17.1l370.016-.681s7.1-8.272,13.912-16.416c-122.359.484-244.717-.414-367.076,0" transform="translate(-377.841 553.559)" fill="#f6dce0"/>
          <path id="path80" d="M877.232-182.881c-122.359.484-244.717-.414-367.076,0-1.715-15.7-2.528-24.274-4.13-39.8,122.179-.862,244.357.946,366.533,0,1.5,13.449,3.056,26.368,4.673,39.8" transform="translate(-365.119 550.393)" fill="#ffc4d1"/>
          <path id="path82" d="M874.576-437.545c12.639,76.653,20.371,156.17,28.958,233.351-122.176.946-244.354-.862-366.533,0-8.011-78.437-15.672-155.263-26.673-233.351,121.416.1,242.831-.374,364.248,0" transform="translate(-396.095 531.901)" fill="#1a181b"/>
          <path id="path84" d="M546.111-424.925c111.85-.3,223.7-.055,335.55-.159.966,6.005,1.437,9.025,2.358,15.1-111.887.582-223.775.824-335.66,1.561-.876-6.576-1.324-9.875-2.247-16.5" transform="translate(-415.443 532.986)" fill="#c1c0bd"/>
          <path id="path86" d="M838.62-414.106c-.459-2.995-.692-4.488-1.164-7.467-95.613.191-191.228.142-286.842.382.449,3.229.669,4.843,1.1,8.063,95.633-.43,191.268-.585,286.9-.979" transform="translate(-374.934 533.289)" fill="#fff"/>
          <path id="path88" d="M860.751-411.182c9.235,62.908,15.88,127.5,22.83,190.686-112.5,1.006-225-.938-337.5,0-6.441-63.57-12.774-125.753-20.994-189.125,111.886-.737,223.773-.979,335.66-1.561" transform="translate(-392.175 534.183)" fill="#33344b"/>
          <path id="path90" d="M555.588-402q64.908-.382,129.82-.812c4.638,23.668,8.79,47.432,12.758,71.221q-66.85.978-133.7,1.874c-2.72-24.122-5.6-48.229-8.877-72.282" transform="translate(-239.883 534.904)" fill="#fccc6a"/>
          <path id="path92" d="M687.391-337.242c.83,4.986,1.241,7.488,2.061,12.509q-67.182.991-134.365,1.9c-.553-5.024-.831-7.529-1.4-12.532q66.852-.91,133.7-1.874" transform="translate(-229.109 540.55)" fill="#5aaae2"/>
          <path id="path94" d="M780.11-380.042c2.223,12.689,16.093,21.537,29.025,21.718,12.08.169,24.482-10.206,22.672-22.277-1.939-12.932-16.07-21.928-29.152-21.8-11.128.11-24.709,10.012-22.545,22.358" transform="translate(-617.306 534.939)" fill="#fff"/>
          <path id="path96" d="M791.336-384.744c3.454-.035,5.178-.054,8.629-.09-.424-2.954-.639-4.433-1.072-7.391a1.47,1.47,0,0,1,1.606-1.606c2.069-.02,3.1-.029,5.173-.048a2.068,2.068,0,0,1,2.085,1.573c.456,2.954.684,4.43,1.132,7.38l8.621-.087a2.088,2.088,0,0,1,2.11,1.565c.288,1.78.43,2.67.717,4.45a1.466,1.466,0,0,1-1.615,1.6l-8.682.1c.443,2.948.66,4.421,1.1,7.367a1.5,1.5,0,0,1-1.651,1.606l-5.293.065a2.048,2.048,0,0,1-2.1-1.561c-.41-2.948-.617-4.424-1.034-7.375l-8.69.1a2.02,2.02,0,0,1-2.078-1.567c-.237-1.787-.356-2.68-.6-4.469a1.507,1.507,0,0,1,1.644-1.612" transform="translate(-616.32 535.673)" fill="#f03556"/>
          <path id="path98" d="M658.768-202.271c.944,5.817,7.136,9.957,12.909,10.1,5.39.129,10.917-4.625,10.147-10.206-.824-5.979-7.054-10.125-12.886-10.076-4.96.041-11.09,4.525-10.17,10.185" transform="translate(-335.578 551.294)" fill="#757c7f"/>
          <path id="path100" d="M706.677-342.391q65.116-.956,130.229-1.815c3.956,24.472,7.679,48.98,11.4,73.488q-66.971.778-133.944,1.589c-2.469-24.43-4.969-48.857-7.681-73.263" transform="translate(-554.117 539.95)" fill="#fccc6a"/>
          <path id="path102" d="M838.849-276.543c.769,5.086,1.154,7.633,1.925,12.736q-67.3.715-134.6,1.461c-.51-5.048-.763-7.571-1.273-12.609q66.971-.823,133.944-1.589" transform="translate(-544.664 545.776)" fill="#5aaae2"/>
          <path id="path104" d="M744.7-279.39c-.773-2.456-1.622-4.864-2.573-7.155a39.869,39.869,0,0,0-2.282-4.583,38.079,38.079,0,0,0,7.976-6.3,39.932,39.932,0,0,1,2.831,6.337c.468,1.306.853,2.657,1.264,3.993.314,1.367.665,2.727.944,4.1.563,2.74.947,5.554,1.25,8.376l0,.3-7.963.093c-.146-.565-.22-.846-.368-1.41-.43-1.5-.644-2.249-1.076-3.746" transform="translate(-495.95 543.978)" fill="#f89e6e"/>
          <path id="path106" d="M760.547-298.322a23.638,23.638,0,0,0-3.36-4.255,15.853,15.853,0,0,0-2.214-1.909,15.96,15.96,0,0,0-1.338-.875,10.08,10.08,0,0,0-2.006-.908,6.458,6.458,0,0,0-5.788,1.516,4.388,4.388,0,0,0-1.481,3.261,6.479,6.479,0,0,0,.9,2.957,67.64,67.64,0,0,0,3.8,5.612,17.738,17.738,0,0,1,1.227,1.738c.456.731.9,1.483,1.342,2.246a46.991,46.991,0,0,0,9.86-7.791c-.3-.536-.62-1.076-.944-1.593" transform="translate(-508.234 543.199)" fill="#c6dfdf"/>
          <path id="path108" d="M775.142-307.038c.41.2.789.44,1.177.668-.553,13.288-.847,19.951-1.429,33.322l-16.2.191c.216-13.631.326-20.422.513-33.976a19.178,19.178,0,0,1,15.94-.2" transform="translate(-538.627 543.01)" fill="#1bb3a9"/>
          <path id="path110" d="M759.21-293.469c2.213,5.656,1.161,13.76,1.887,20.077l-13.76.161c.582-13.371.876-20.033,1.429-33.322,4.951,2.869,8.367,7.768,10.444,13.084" transform="translate(-511.074 543.192)" fill="#bbdbd6"/>
          <path id="path112" d="M792.237-306.688c.213-.112.439-.188.655-.291-.187,13.555-.3,20.345-.513,33.976-7.171.085-10.755.127-17.929.214,2.654-10.386,6.113-27.794,17.787-33.9" transform="translate(-572.317 543.156)" fill="#bbdbd6"/>
          <path id="path114" d="M783.391-275.485c.158-1.371.378-2.766.565-4.152.277-1.4.529-2.8.862-4.2a54.93,54.93,0,0,1,2.111-7.048,21.693,21.693,0,0,0,7.71,2.078c-.65,1.7-1.25,3.442-1.741,5.209-.7,2.518-1.3,5.089-1.825,7.675-.12.655-.18.98-.3,1.635-3,.038-4.5.055-7.5.091.043-.43.065-.856.113-1.286" transform="translate(-583.651 544.541)" fill="#f89e6e"/>
          <path id="path116" d="M778.266-291.086a38.44,38.44,0,0,1,2.738-5.4,27.13,27.13,0,0,1,1.872-2.747c.329-.45.755-.938,1.148-1.406a16.657,16.657,0,0,1,1.755-1.742,5.911,5.911,0,0,1,5.37-1.271,2.511,2.511,0,0,1,1.589,2.287,7.992,7.992,0,0,1-.594,3.1c-.81,2.342-2.056,4.543-3.044,6.842-.355.691-.684,1.406-.987,2.14-.361.872-.713,1.759-1.054,2.656a26.88,26.88,0,0,1-9.534-2.573c.239-.624.484-1.256.741-1.88" transform="translate(-575.515 543.423)" fill="#c6dfdf"/>
          <path id="path118" d="M773.971-318.2c.217,3.154.324,4.732.539,7.891a14.8,14.8,0,0,1-8,2.812,10.4,10.4,0,0,1-4.87-1.072c-.169-2.184-.255-3.274-.426-5.457,5.106-1.67,7.658-2.505,12.76-4.175" transform="translate(-539.556 542.189)" fill="#f36644"/>
          <path id="path120" d="M773.832-310.939c.106,1.567.158,2.35.264,3.917a6.153,6.153,0,0,1-4.538,5.927,15.159,15.159,0,0,1-2,.4c-6.046.8-6.11-2.19-6.11-2.19-.194-2.526-.291-3.787-.488-6.311a10.4,10.4,0,0,0,4.87,1.072,14.8,14.8,0,0,0,8-2.812" transform="translate(-538.878 542.815)" fill="#f57c5b"/>
          <path id="path122" d="M757.124-319.457a4.382,4.382,0,0,1-.343-1.832,5.564,5.564,0,0,1,.191-1.493l.046-.12a3.328,3.328,0,0,1,.42-.872,2.123,2.123,0,0,1,.71-.7,1.97,1.97,0,0,1,.5-.194l.188-.036.232-.007a1.686,1.686,0,0,1,.824.272c.553.426.639,1.253,1.255,1.751a1.7,1.7,0,0,0,2.536-.4,5.668,5.668,0,0,0,.873-1.6,55.038,55.038,0,0,0,2.359-9.212,11.737,11.737,0,0,0,7.546,3.054,22.6,22.6,0,0,0,3.683-.068,32.675,32.675,0,0,1-.536,10.867c-.639,3.241-1.946,7.29-5.215,9.352a10.4,10.4,0,0,1-1.008.56c-6.688,3.263-11.4.113-12.767-5.431l-.028.007c.387-.785.778-1.567,1.143-2.358a2.948,2.948,0,0,1-2.608-1.547" transform="translate(-538.623 540.838)" fill="#f57c5b"/>
          <path id="path124" d="M751.476-333.421a7.427,7.427,0,0,1,2.287-2.04,4.119,4.119,0,0,1,3.452-.523,6.771,6.771,0,0,1,3.907-2.821,20.339,20.339,0,0,1,11.588-.405,33.612,33.612,0,0,1,9.765,4.5,1.692,1.692,0,0,1,.914,1.038,1.944,1.944,0,0,1-.96,1.707,5.4,5.4,0,0,1-1.936.717,41.382,41.382,0,0,1-5.332.853,22.6,22.6,0,0,1-3.683.068,11.736,11.736,0,0,1-7.546-3.054,55.041,55.041,0,0,1-2.359,9.212,5.663,5.663,0,0,1-.873,1.6,1.7,1.7,0,0,1-2.536.4c-.611-.494-.7-1.308-1.245-1.738l-.123-.081a1.435,1.435,0,0,0-.711-.2l-.232.007-.188.036a1.938,1.938,0,0,0-.5.194h0a2.121,2.121,0,0,0-.71.7,3.326,3.326,0,0,0-.42.872l-.046.12a5.552,5.552,0,0,0-.191,1.493,4.382,4.382,0,0,0,.343,1.832,2.948,2.948,0,0,0,2.608,1.547c-.365.791-.756,1.573-1.143,2.358-3.819,1.445-5.96-6.2-6.1-8.634-.181-3.182-.3-6.621,1.969-9.747" transform="translate(-535.64 540.324)" fill="#a44931"/>
          <path id="path126" d="M753.411-307.471s.7,16.984.941,23.7c1.89-3.277,2.834-4.916,4.719-8.192l-3.066-1.358,5.662-7.465s-2.808-6.871-8.822-6.534" transform="translate(-517.628 543.113)" fill="#d6ede9"/>
          <path id="path128" d="M782.854-306.979s-.432,17.22-.355,23.968c-2.022-2.362-3.034-3.541-5.054-5.9,1.188-1.108,1.781-1.662,2.97-2.769-2.387-1.9-3.578-2.844-5.965-4.738,0,0,2.443-8.094,8.4-10.561" transform="translate(-562.278 543.156)" fill="#d6ede9"/>
          <path id="path130" d="M759.865-317.135a.559.559,0,0,1,.032-.446,3.306,3.306,0,0,1,1.563-1.661,2.192,2.192,0,0,1,2.563.194,2.189,2.189,0,0,1,2.479-.736,2.161,2.161,0,0,1,.831.624c.156.181.472.627.352.93-.161.407-1.208.448-1.512.485l-2.046.249-3.263.4c-.372.046-.867.2-1-.036" transform="translate(-531.26 542.042)" fill="#a44931"/>
          <path id="path132" d="M571.321-374.757a8.035,8.035,0,0,1-.883-3.869,7.927,7.927,0,0,1,.811-3.319,39.8,39.8,0,0,1,1.674-3.668,4.982,4.982,0,0,1,.741-1.143.746.746,0,0,1,1.306.223,1.7,1.7,0,0,1-.012.825,10.374,10.374,0,0,1-.529,1.891c-.054.136-.472,1.51-.317,1.483,3.156-.555,6.181-2.048,9.355-2.329a3.851,3.851,0,0,1,1.064,0c1.05.207,1.758.98,1.261,2.1a5.163,5.163,0,0,1-2.072,2.03,23.408,23.408,0,0,1-5.328,2.42c-.333.1-.671.193-1.006.268l-.281.106-.2.3a10.67,10.67,0,0,0-.637,2.01s-4.091,2.013-4.95.669" transform="translate(-143.796 536.261)" fill="#f57c5b"/>
          <path id="path134" d="M578.593-364.961c.12-.074.249-.146.387-.214a7.716,7.716,0,0,1,2.963-.7c4.867-.342,9.371,1.6,13.332,3.455,4.192,1.961,8.079,4.362,12.169,6.475q-.024-3.363-.055-6.711c-.016-1.884.017-5.976,0-7.853-.012-1.192.071-2.379.156-3.57.055-.786.11-1.573.136-2.365l6.9-1.634c.172.839.3,1.69.426,2.546a82.043,82.043,0,0,1,.733,10.487c.067,4.108.436,8.66-1.151,12.913a8.667,8.667,0,0,1-3.363,4.528c-2.652,1.593-6.4.3-8.735-.385a56.5,56.5,0,0,1-8.276-3.345c-.656-.311-1.3-.65-1.941-.995,2.066,5.514,1.224,13.2,2,19.246l-13.743.194c.326-10.182.478-15.243.746-25.3-2.093-1.271-6.349-4.5-2.676-6.773" transform="translate(-180.953 537.034)" fill="#15b09a"/>
          <path id="path136" d="M624.7-367.062c.413.2.8.432,1.189.653-.322,12.982-.514,19.528-.937,32.716l-16.171.226c.055-13.463.065-20.146.013-33.414a19.5,19.5,0,0,1,15.906-.181" transform="translate(-225.383 537.844)" fill="#feedcf"/>
          <path id="path138" d="M641.737-366.739c.211-.109.434-.184.647-.284.052,13.268.042,19.951-.013,33.414-7.154.1-10.731.149-17.88.246,2.523-10.279,5.706-27.416,17.246-33.377" transform="translate(-258.972 537.986)" fill="#15b09a"/>
          <path id="path140" d="M622.974-376.628c.232,2.576.347,3.867.575,6.45a12.363,12.363,0,0,1-6.65,2.291,8.946,8.946,0,0,1-4.087-.885c-.175-1.79-.263-2.683-.44-4.469,4.242-1.357,6.362-2.035,10.6-3.387" transform="translate(-226.939 537.159)" fill="#f36644"/>
          <path id="path142" d="M608.7-378.387c-.53-.982-.608-3.687.843-4.479,1.492-.815,2.316.779,3.154,1.428a.845.845,0,0,0,.414.194,1.069,1.069,0,0,0,.956-.689,2.5,2.5,0,0,0,.106-1.14c-.127-2.237-.531-4.459.637-6.641,3.434-6.4,12.3-1.276,12.3-1.276,1.253,3.68,1.083,8,.326,12.138-.526,2.89-1.652,6.505-4.609,8.343a9.72,9.72,0,0,1-.912.5c-6.069,2.909-10.428.078-11.781-4.889l-.025.007c.34-.7.684-1.4,1-2.106a2.783,2.783,0,0,1-2.414-1.39" transform="translate(-227.045 535.755)" fill="#f57c5b"/>
          <path id="path144" d="M608.3-392.682a13.134,13.134,0,0,1,7.342-3.92c.456-.1,5.39.02,5.39.02s1.227-2.688,2.534-3.145a2.215,2.215,0,0,1,2.57,1,2.083,2.083,0,0,1-.035,2.42,14.433,14.433,0,0,1,4.9-1.25,1.715,1.715,0,0,1,.983.249,1.281,1.281,0,0,1,.233,1.529,5.058,5.058,0,0,1-1.115,1.5c-.293.3-3.69,3.785-3.659,3.878,0,0-8.868-5.126-12.3,1.276-1.169,2.182-.765,4.4-.637,6.641a2.5,2.5,0,0,1-.106,1.14,1.069,1.069,0,0,1-.956.689.844.844,0,0,1-.414-.194c-.839-.649-1.663-2.243-3.154-1.428-1.451.792-1.373,3.5-.843,4.479a2.783,2.783,0,0,0,2.414,1.39c-.32.705-.663,1.4-1,2.106-3.47,1.285-5.565-5.568-5.737-7.742a14.489,14.489,0,0,1,3.6-10.644" transform="translate(-227.382 535.16)" fill="#6a4c4f"/>
          <path id="path146" d="M602.236-367.8s1.894,16.969,2.226,23.574c1.842-3.228,2.76-4.838,4.595-8.05-1.234-.533-1.851-.8-3.085-1.332,2.489-2.909,3.73-4.36,6.212-7.258,0,0-3.95-7.254-9.949-6.934" transform="translate(-204.566 537.918)" fill="#1ab2a2"/>
          <path id="path148" d="M632.134-367.755s-1.409,17.97-1.98,25c-2.242-3.07-3.363-4.6-5.607-7.664,1.287-.946,1.929-1.418,3.216-2.362-2.032-2.242-3.047-3.361-5.079-5.6,0,0,3.41-7.762,9.449-9.377" transform="translate(-246.726 537.923)" fill="#1ab2a2"/>
          <path id="path150" d="M616.188-368.4a12.363,12.363,0,0,0,6.65-2.291l.015.172c.013.149.027.3.04.447q.074.858.149,1.716a7.521,7.521,0,0,1,.045,1.861,12.572,12.572,0,0,1-.28,1.3,12.7,12.7,0,0,1-.649,1.854,10.114,10.114,0,0,1-1.163,2,7.721,7.721,0,0,1-1.813,1.745s-4.9-.615-6.311-4.043a3.98,3.98,0,0,1-.356-1.419l-.028-.232q-.132-1.4-.269-2.792c-.029-.29-.057-.581-.085-.872l-.032-.333a8.947,8.947,0,0,0,4.087.885" transform="translate(-226.229 537.67)" fill="#f57c5b"/>
          <path id="path152" d="M623.556-373.747q64.934-.723,129.864-1.415c4.269,24.187,8.163,48.436,12.007,72.693q-66.847.906-133.695,1.791c-2.565-24.374-5.219-48.741-8.176-73.07" transform="translate(-380.964 537.285)" fill="#feedcf"/>
          <path id="path154" d="M755.428-308.231c.8,5.055,1.189,7.59,1.98,12.67q-67.18.875-134.358,1.731c-.524-5.05-.788-7.571-1.316-12.609q66.847-.9,133.695-1.791" transform="translate(-370.965 543.048)" fill="#5aaae2"/>
          <path id="path156" d="M665.743-310.764c-.746-2.321-1.563-4.592-2.475-6.754a37.973,37.973,0,0,0-2.19-4.324,35.877,35.877,0,0,0,7.516-5.949,37.433,37.433,0,0,1,2.721,5.971c.45,1.232.824,2.507,1.221,3.765.306,1.29.643,2.573.918,3.865.546,2.586.924,5.242,1.224,7.907V-306l-7.545.1c-.14-.533-.211-.8-.355-1.331-.414-1.416-.62-2.123-1.035-3.536" transform="translate(-330.969 541.364)" fill="#f89e6e"/>
          <path id="path158" d="M680.821-328.632a22.567,22.567,0,0,0-3.209-4.008,15.25,15.25,0,0,0-2.113-1.8c-.368-.284-.836-.556-1.271-.824a9.79,9.79,0,0,0-1.907-.854,6.106,6.106,0,0,0-5.47,1.428,4.093,4.093,0,0,0-1.38,3.074,6.135,6.135,0,0,0,.869,2.789c1.014,1.926,2.453,3.494,3.638,5.293a17.5,17.5,0,0,1,1.173,1.636c.436.691.862,1.4,1.283,2.121a44.248,44.248,0,0,0,9.293-7.358c-.292-.5-.6-1.012-.905-1.5" transform="translate(-342.787 540.63)" fill="#1890c4"/>
          <path id="path160" d="M674.262-353.985a42.785,42.785,0,0,0,.442,17.7.646.646,0,0,0,.188.379l.274.1a38.352,38.352,0,0,0,13.029,1.122,46.718,46.718,0,0,0,4.631-.659c1.464-.3,2.9-.95,4.343-1.26a26.48,26.48,0,0,0,3.987-1.093c.381-.143,3.988-1.558,3.966-1.851-.4-5.617-1.124-11.141-1.367-16.774-.141-3.244-.439-6.169-2.275-8.683a8.922,8.922,0,0,0-3.612-2.976c-2.017-.878-5.436-1.306-7.461.838a21,21,0,0,0-3.777-.52,13.076,13.076,0,0,0-5.011,1.185c-4.673,2.324-6.26,7.265-7.18,11.588q-.1.45-.178.9" transform="translate(-374.956 537.841)" fill="#fccc6a"/>
          <path id="path162" d="M684.288-336.13c.2-.106.408-.177.611-.274a17.969,17.969,0,0,1,14.9-.19c.384.187.74.411,1.106.621,4.648,2.676,7.878,7.245,9.852,12.206,2.1,5.277,1.158,12.849,1.864,18.755l-12.874.172c-6.061.081-9.09.12-15.15.2l-16.764.223c2.439-9.734,5.575-26.02,16.451-31.717" transform="translate(-376.257 540.474)" fill="#1c7aaa"/>
          <path id="path164" d="M692-347c.141,2.94.21,4.411.347,7.358a11.761,11.761,0,0,1-6.738,2.611,7.877,7.877,0,0,1-4.062-1.008c-.113-2.037-.169-3.056-.284-5.092,4.3-1.55,6.443-2.323,10.736-3.869" transform="translate(-370.568 539.709)" fill="#f68b4d"/>
          <path id="path166" d="M691.873-340.227c.075,1.594.462,3.229-.055,4.87a32.465,32.465,0,0,1-3.512,7.513,43.548,43.548,0,0,1-4.011-2.017,6.086,6.086,0,0,1-2.314-2.646,8.387,8.387,0,0,1-.759-3.39q-.072-1.321-.145-2.637l0-.09a7.876,7.876,0,0,0,4.062,1.008,11.761,11.761,0,0,0,6.738-2.611" transform="translate(-370.091 540.293)" fill="#f89e6e"/>
          <path id="path168" d="M698.956-351.556a20.873,20.873,0,0,1-2.594,9.453c-1.878,3.287-7.154,4.635-9.975,3.406a7.39,7.39,0,0,1-3.192-3.083,8.277,8.277,0,0,1-.941-2.179c-.158-.608-.56-1.312-.318-2.011a1.56,1.56,0,0,1-2.517.049,4.339,4.339,0,0,1-.724-2.788,3.334,3.334,0,0,1,.143-1.1c.392-1.19,1.3-2.007,2.453-1.568,1.652.631,1.122,2.155,1.877,3.47a.644.644,0,0,0,.786.374,1.1,1.1,0,0,0,.51-.909c.071-.463.143-.924.213-1.387a3.226,3.226,0,0,1,.181-.756,11.382,11.382,0,0,1,1.774-2.3,29.173,29.173,0,0,0,1.887-2.86c.352-.592,3.245-5.53,2.8-5.861a12.834,12.834,0,0,0,5.231,2.731c.255.046,1.56.13,1.632.39a22.47,22.47,0,0,1,.773,6.928" transform="translate(-374.4 538.452)" fill="#f89e6e"/>
          <path id="path170" d="M699.952-307.03c.152-1.4.369-2.821.552-4.231.277-1.428.526-2.853.854-4.285a56.2,56.2,0,0,1,2.111-7.18,22.4,22.4,0,0,0,7.9,2.111c-.653,1.726-1.256,3.5-1.747,5.3-.7,2.565-1.293,5.186-1.819,7.821-.117.668-.177,1-.3,1.667l-7.661.1c.041-.439.061-.873.109-1.312" transform="translate(-409.759 541.8)" fill="#f89e6e"/>
          <path id="path172" d="M694.8-322.927a38.712,38.712,0,0,1,2.759-5.5,27.252,27.252,0,0,1,1.891-2.795c.335-.459.763-.954,1.164-1.431a16.7,16.7,0,0,1,1.778-1.773,6.037,6.037,0,0,1,5.477-1.289,2.568,2.568,0,0,1,1.644,2.321,8.027,8.027,0,0,1-.582,3.148c-.81,2.379-2.068,4.617-3.058,6.958q-.537,1.053-.995,2.178c-.363.888-.715,1.791-1.06,2.7a27.623,27.623,0,0,1-9.763-2.611c.24-.636.487-1.279.746-1.913" transform="translate(-401.637 540.663)" fill="#1890c4"/>
          <path id="path174" d="M548.2-260.662a11.143,11.143,0,0,0,3.031,16.174,12.94,12.94,0,0,0,17.3-2.791,11.153,11.153,0,0,0-3.037-16.184,12.993,12.993,0,0,0-17.3,2.8" transform="translate(-102.034 546.721)" fill="#54bf3d"/>
          <path id="path176" d="M553.967-256.135c-.112-.906-.167-1.358-.279-2.265,2.585-.029,7.517-.081,10.1-.109.478,3.077.718,4.62,1.2,7.705-2.683.029-7.669.078-10.353.106-.112-.908-.168-1.361-.28-2.269-1.035.92-1.561,1.379-2.622,2.3-.336-3.083-.5-4.625-.837-7.7,1.216.895,1.829,1.342,3.071,2.236" transform="translate(-101.609 547.329)" fill="#fff"/>
          <path id="path178" d="M623.369-259.866a11.019,11.019,0,0,0,2.98,16.061,12.971,12.971,0,0,0,17.273-2.76,11.037,11.037,0,0,0-2.988-16.073,13.014,13.014,0,0,0-17.266,2.772" transform="translate(-258.755 546.793)" fill="#5aaae2"/>
          <path id="path180" d="M632.667-251.693a2.593,2.593,0,0,1-2.866-2.268c.012-1.558.017-2.339.029-3.9a2.636,2.636,0,0,1,2.8-2.32,2.6,2.6,0,0,1,2.82,2.263c.025,1.557.038,2.336.061,3.9a2.628,2.628,0,0,1-2.846,2.324" transform="translate(-257.833 547.185)" fill="#fff"/>
          <path id="path182" d="M632.382-250.376c-2.369-.151-4.211-1.7-4.182-3.613.009-.6.013-.893.022-1.49a.4.4,0,0,1,.421-.343.378.378,0,0,1,.416.335c-.007.6-.01.894-.016,1.49-.019,1.661,1.668,3,3.764,2.976s3.767-1.389,3.736-3.05c-.012-.6-.017-.895-.03-1.49a.381.381,0,0,1,.413-.342.391.391,0,0,1,.426.333c.013.6.02.894.035,1.492.042,1.917-1.786,3.5-4.15,3.7,0,.781.007,1.172.013,1.952l0,.006,2.5-.023a.4.4,0,0,1,.437.336.391.391,0,0,1-.426.342l-5.864.054a.386.386,0,0,1-.43-.333.4.4,0,0,1,.434-.345c1-.007,1.5-.012,2.5-.022l0-.006c0-.781,0-1.172,0-1.954" transform="translate(-257.966 547.553)" fill="#fff"/>
          <path id="path184" d="M585.807-260.258a11.083,11.083,0,0,0,3.006,16.118,12.95,12.95,0,0,0,17.284-2.775,11.1,11.1,0,0,0-3.014-16.128,13,13,0,0,0-17.276,2.785" transform="translate(-180.435 546.757)" fill="#f03556"/>
          <path id="path186" d="M589.357-252.833l1.7-.833a.836.836,0,0,1,1.26.479c.119.511.178.766.3,1.274A9.5,9.5,0,0,0,596-253.876a8.123,8.123,0,0,0,2.082-2.618c-.494-.236-.74-.355-1.234-.592a.907.907,0,0,1-.21-1.383l1.108-1.591a1.128,1.128,0,0,1,1.418-.447c.271.158.54.316.812.472a1.942,1.942,0,0,1,.963,1.008,1.912,1.912,0,0,1,.006,1.095,10.779,10.779,0,0,1-3.525,5.862,11.11,11.11,0,0,1-6.651,3.011,1.623,1.623,0,0,1-1.706-1.128l-.4-1.276a1.221,1.221,0,0,1,.692-1.368" transform="translate(-178.623 547.148)" fill="#fff"/>
          <path id="path188" d="M539.077-126.314h238.37v7.163H539.077v-7.163" transform="translate(-301.233 558.712)" fill="#dddad8"/>
          <path id="path190" d="M544.368-130.182H563.03v4.2H544.368v-4.2" transform="translate(-92.561 558.379)" fill="#272633"/>
          <path id="path192" d="M565.683-130.182h18.661v4.2H565.683v-4.2" transform="translate(-137.025 558.379)" fill="#272633"/>
          <path id="path194" d="M587-130.182h89.208v4.2H587v-4.2" transform="translate(-252.036 558.379)" fill="#272633"/>
          <path id="path196" d="M672.254-130.182h18.662v4.2H672.254v-4.2" transform="translate(-359.346 558.379)" fill="#272633"/>
          <path id="path198" d="M693.569-130.182H712.23v4.2H693.569v-4.2" transform="translate(-403.809 558.379)" fill="#272633"/>
          <path id="path200" d="M714.883-130.182h18.662v4.2H714.883v-4.2" transform="translate(-448.275 558.379)" fill="#272633"/>
          <path id="path202" d="M736.2-130.182h18.662v4.2H736.2v-4.2" transform="translate(-492.736 558.379)" fill="#272633"/>
          <path id="path204" d="M757.513-130.182h16.031v4.2H757.513v-4.2" transform="translate(-534.573 558.379)" fill="#272633"/>
          <path id="path206" d="M775.822-130.182h16.031v4.2H775.822v-4.2" transform="translate(-572.768 558.379)" fill="#272633"/>
          <path id="path208" d="M758.55-119.152h37.828v-7.163H758.55v7.163" transform="translate(-558.534 558.712)" fill="#a5a9a8"/>
          <path id="path210" d="M838.18-135h15.175a15.934,15.934,0,0,1,15.934,15.936v.665H822.245v-.665A15.935,15.935,0,0,1,838.18-135" transform="translate(-700.623 557.963)" fill="#757c7f"/>
          <path id="path212" d="M379.171-119.619h639.692a11.083,11.083,0,0,1,11.158,11.006H368.014a11.083,11.083,0,0,1,11.158-11.006" transform="translate(-368.014 559.288)" fill="#ffc4d1"/>
          <path id="path214" d="M458.884-109.486h571.137a11.084,11.084,0,0,1-11.158,11.007H379.172a11.084,11.084,0,0,1-11.158-11.007h90.87" transform="translate(-368.014 560.161)" fill="#cac7ff"/>
          <path id="path216" d="M414.5-321.956a75.6,75.6,0,0,0,69.389-45.926l35.043-9.364-29.01-19.214a75.529,75.529,0,0,0-63.482-75.581,76.025,76.025,0,0,0-12.121-.975,75.538,75.538,0,0,0-74.463,63.5,75.518,75.518,0,0,0,62.525,86.584,76.024,76.024,0,0,0,12.119.976" transform="translate(174.722 528.859)" fill="#220382" opacity="0.2"/>
          <path id="path218" d="M426.437-479.169a75.528,75.528,0,0,1,63.482,75.58l29.01,19.214-35.043,9.364a75.541,75.541,0,0,1-81.508,44.952,75.519,75.519,0,0,1-62.525-86.584,75.519,75.519,0,0,1,86.584-62.525" transform="translate(174.722 528.245)" fill="#fff"/>
          <path id="path220" d="M398.109-419.221a22.09,22.09,0,0,1,22.09-22.09,22.031,22.031,0,0,1,17.425,8.547,22.031,22.031,0,0,1,17.425-8.547,22.089,22.089,0,0,1,22.09,22.09s3.449,19.68-30.32,49.982a14.126,14.126,0,0,1-18.691.2c-12.075-10.461-31.235-30.323-30.02-50.184" transform="translate(152.141 531.589)" fill="#f03556"/>
          <path id="path222" d="M462.947-402.987H447.792a.682.682,0,0,1-.668-.533l-1.981-8.7-3.933,16.646a.683.683,0,0,1-.685.526.685.685,0,0,1-.656-.563L435.8-418.377l-4.14,22.772a.685.685,0,0,1-.662.563.686.686,0,0,1-.681-.54l-3.664-16.851L424.4-403.5a.683.683,0,0,1-.663.517H409.576a.685.685,0,0,1-.685-.685.685.685,0,0,1,.685-.685h13.633l2.834-11.239a.686.686,0,0,1,.675-.517.684.684,0,0,1,.657.54l3.555,16.348,4.205-23.135a.687.687,0,0,1,.675-.562.684.684,0,0,1,.672.565l4.155,23.259,3.854-16.3a.684.684,0,0,1,.669-.527.687.687,0,0,1,.665.533l2.514,11.039h14.609a.685.685,0,0,1,.685.685.685.685,0,0,1-.685.685" transform="translate(153.979 533.172)" fill="#fff"/>
          <path id="path224" d="M53.924,24.6c.019-2.4.039-4.8.083-7.207.014-.808.042-1.613.061-2.421.052-2.407.1-4.815.18-7.222.026-.81.065-1.619.093-2.428.084-2.4.168-4.807.277-7.209.038-.831.088-1.662.129-2.493.116-2.379.23-4.757.369-7.137.049-.837.112-1.672.164-2.509.146-2.374.293-4.747.462-7.118.055-.754.12-1.507.178-2.262.182-2.452.368-4.906.576-7.357.061-.714.135-1.427.2-2.142.22-2.485.44-4.973.685-7.458.078-.78.167-1.557.246-2.335.246-2.42.494-4.84.765-7.257.084-.754.181-1.5.268-2.259.281-2.439.562-4.88.867-7.316.094-.747.2-1.492.3-2.237.314-2.441.63-4.883.969-7.321.106-.756.223-1.514.33-2.27.345-2.424.689-4.849,1.059-7.268.12-.789.253-1.576.377-2.366.372-2.387.744-4.774,1.141-7.156.119-.716.249-1.428.369-2.143.416-2.453.831-4.9,1.271-7.35.152-.853.32-1.7.476-2.555.423-2.307.844-4.614,1.289-6.915.19-.979.394-1.952.587-2.931.43-2.174.857-4.347,1.306-6.516.206-.991.426-1.975.634-2.964.456-2.153.908-4.308,1.383-6.456.214-.967.443-1.932.66-2.9.488-2.168.975-4.336,1.483-6.5.214-.914.443-1.823.66-2.736.529-2.207,1.054-4.418,1.6-6.619.268-1.075.552-2.145.824-3.218.518-2.039,1.031-4.078,1.567-6.114.277-1.051.571-2.1.853-3.151.549-2.049,1.093-4.1,1.661-6.143.3-1.093.624-2.184.933-3.277.563-1.994,1.122-3.99,1.7-5.978.33-1.131.678-2.258,1.014-3.387.579-1.946,1.151-3.9,1.746-5.836.311-1.012.636-2.019.95-3.028.64-2.052,1.276-4.107,1.933-6.153.372-1.161.763-2.317,1.141-3.477.618-1.885,1.228-3.775,1.861-5.656.543-1.615,1.106-3.222,1.661-4.834.489-1.419.967-2.843,1.465-4.259.592-1.689,1.208-3.37,1.813-5.054.479-1.332.949-2.67,1.436-4,.558-1.523,1.136-3.04,1.7-4.559.556-1.483,1.1-2.969,1.665-4.449.627-1.641,1.275-3.273,1.913-4.908.527-1.348,1.043-2.7,1.577-4.045.659-1.66,1.341-3.312,2.013-4.966.535-1.313,1.058-2.631,1.6-3.943q3.672-8.88,7.583-17.651c15.969-35.807,35.2-71.415,38.385-110.658a71.424,71.424,0,0,0-.433-17.912,44.251,44.251,0,0,0-1.374-5.6c6.692,2.967,12.952,6.883,17.3,12.486,13.752,17.728,16.16,37.32,12.062,58.689-6.8,35.469-24.9,67.954-39.536,101.264-24.485,55.734-39.521,114.821-47.86,174.522Q91.441-27.581,89.52-5c-.726,8.4,1.208,22.064-3.092,30.252H53.916c0-.217.006-.434.007-.653" transform="translate(819.373 535.405)" fill="#272633"/>
          <path id="path226" d="M364.077-371.809c-3.184,39.243-22.417,74.851-38.385,110.658q-3.912,8.771-7.583,17.651c-.541,1.312-1.065,2.63-1.6,3.943-.673,1.654-1.354,3.306-2.013,4.966-.535,1.344-1.05,2.7-1.577,4.045-.638,1.635-1.286,3.267-1.913,4.908-.564,1.48-1.109,2.966-1.665,4.449-.569,1.519-1.147,3.035-1.7,4.559-.488,1.329-.957,2.667-1.436,4-.605,1.684-1.221,3.365-1.813,5.054-.5,1.416-.976,2.84-1.466,4.259-.555,1.612-1.118,3.219-1.661,4.834-.631,1.881-1.242,3.771-1.861,5.656-.378,1.16-.769,2.316-1.141,3.477-.659,2.046-1.293,4.1-1.933,6.153-.314,1.009-.639,2.016-.95,3.028-.6,1.941-1.167,3.89-1.746,5.836-.336,1.13-.684,2.256-1.014,3.387-.581,1.988-1.14,3.984-1.7,5.978-.308,1.093-.628,2.184-.933,3.277-.568,2.045-1.112,4.094-1.661,6.143-.282,1.05-.576,2.1-.853,3.151-.536,2.036-1.048,4.075-1.567,6.114-.272,1.073-.556,2.143-.824,3.218-.549,2.2-1.075,4.412-1.6,6.619-.217.912-.446,1.822-.66,2.736-.508,2.163-.995,4.331-1.483,6.5-.217.966-.447,1.93-.66,2.9-.475,2.148-.927,4.3-1.383,6.456-.209.989-.429,1.974-.634,2.964-.449,2.169-.876,4.343-1.306,6.516-.193.979-.4,1.952-.586,2.931-.445,2.3-.866,4.608-1.289,6.915-.156.851-.323,1.7-.476,2.555-.44,2.447-.856,4.9-1.271,7.35-.12.716-.251,1.428-.369,2.143-.4,2.382-.769,4.77-1.141,7.156-.123.79-.256,1.577-.377,2.366-.369,2.42-.714,4.844-1.059,7.268-.107.756-.224,1.512-.33,2.27-.339,2.439-.655,4.88-.969,7.321-.1.746-.2,1.49-.3,2.237-.306,2.436-.586,4.877-.867,7.316-.087.755-.184,1.5-.268,2.259-.271,2.417-.518,4.837-.765,7.257-.08.778-.168,1.555-.246,2.335-.245,2.485-.465,4.973-.685,7.458-.062.715-.136,1.428-.2,2.142-.208,2.451-.394,4.9-.576,7.357-.058.755-.123,1.508-.178,2.262-.169,2.371-.316,4.744-.462,7.118-.052.837-.114,1.673-.164,2.509-.139,2.379-.253,4.757-.369,7.137-.041.831-.091,1.662-.129,2.493-.109,2.4-.193,4.807-.277,7.209-.028.81-.067,1.619-.093,2.428-.077,2.408-.127,4.815-.18,7.222-.019.808-.046,1.613-.061,2.421-.043,2.4-.064,4.8-.083,7.207,0,.219-.006.436-.007.653H156.335c-14.221-4.269-28.276-9.126-42.275-13.979-7.12-2.467-14.436-5.042-20.047-9.85-11.1-9.506-12.871-25.115-13.237-39.232C79.584-82.11,85.55-127.945,91.5-173.583l11.578-88.726c4.608-35.308,9.271-70.865,20.86-104.726,7.737-22.61,28.227-36.849,52.082-43.532,20.918-5.862,43.11-6.017,64.934-5.707,26.084.371,52.544,1.382,77.85,7.863,11.2,2.867,22.811,5.817,33.692,9.391a104.37,104.37,0,0,1,9.769,3.7,44.249,44.249,0,0,1,1.374,5.6,71.421,71.421,0,0,1,.433,17.912" transform="translate(609.714 533.737)" fill="#33344b"/>
          <path id="path228" d="M173.493-6.581c-.012,2.384,0,4.766.013,7.148-.012-2.382-.025-4.764-.013-7.148" transform="translate(699.775 569.021)" fill="#40425a"/>
          <path id="path230" d="M146.745-184.426c.563-1.994,1.122-3.99,1.7-5.978-.581,1.988-1.14,3.984-1.7,5.978" transform="translate(753.881 553.193)" fill="#40425a"/>
          <path id="path232" d="M173.4-8.254c.019-2.4.039-4.8.083-7.207-.043,2.4-.064,4.8-.083,7.207" transform="translate(699.897 568.256)" fill="#40425a"/>
          <path id="path234" d="M123.273-253.261c.535-1.313,1.058-2.631,1.6-3.943-.541,1.312-1.065,2.63-1.6,3.943" transform="translate(802.95 547.441)" fill="#40425a"/>
          <path id="path236" d="M169.366-70.213c.246-2.42.494-4.84.765-7.257-.271,2.417-.518,4.837-.765,7.257" transform="translate(707.629 562.917)" fill="#40425a"/>
          <path id="path238" d="M172.38-34.943c.116-2.379.23-4.757.369-7.137-.139,2.379-.253,4.757-.369,7.137" transform="translate(701.738 565.964)" fill="#40425a"/>
          <path id="path240" d="M171.8-43.826c.146-2.374.293-4.747.462-7.118-.169,2.371-.316,4.744-.462,7.118" transform="translate(702.847 565.201)" fill="#40425a"/>
          <path id="path242" d="M126.6-244.957c.527-1.348,1.043-2.7,1.577-4.045-.535,1.344-1.05,2.7-1.577,4.045" transform="translate(796.034 548.148)" fill="#40425a"/>
          <path id="path244" d="M172.838-26c.084-2.4.168-4.807.277-7.209-.109,2.4-.193,4.807-.277,7.209" transform="translate(700.874 566.728)" fill="#40425a"/>
          <path id="path246" d="M173.178-17.118c.052-2.407.1-4.814.18-7.222-.077,2.407-.127,4.815-.18,7.222" transform="translate(700.261 567.492)" fill="#40425a"/>
          <path id="path248" d="M171.109-52.443c.182-2.452.368-4.906.576-7.357-.208,2.451-.394,4.9-.576,7.357" transform="translate(704.181 564.439)" fill="#40425a"/>
          <path id="path250" d="M170.3-61.18c.22-2.485.44-4.973.685-7.458-.245,2.485-.465,4.973-.685,7.458" transform="translate(705.767 563.678)" fill="#40425a"/>
          <path id="path252" d="M138.785-210.1c.618-1.885,1.229-3.775,1.861-5.656-.633,1.881-1.242,3.771-1.861,5.656" transform="translate(770.328 551.01)" fill="#40425a"/>
          <path id="path254" d="M155.772-149.62c.488-2.168.975-4.336,1.483-6.5-.508,2.163-.995,4.331-1.483,6.5" transform="translate(735.27 556.145)" fill="#40425a"/>
          <path id="path256" d="M168.321-78.969c.281-2.439.562-4.88.867-7.316-.306,2.436-.587,4.877-.867,7.316" transform="translate(709.706 562.158)" fill="#40425a"/>
          <path id="path258" d="M153.688-158.113c.529-2.207,1.054-4.418,1.6-6.619-.549,2.2-1.075,4.412-1.6,6.619" transform="translate(739.497 555.404)" fill="#40425a"/>
          <path id="path260" d="M159.6-132.278c.43-2.174.857-4.347,1.306-6.516-.449,2.169-.876,4.343-1.306,6.516" transform="translate(727.456 557.637)" fill="#40425a"/>
          <path id="path262" d="M149.172-175.739c.549-2.049,1.093-4.1,1.661-6.143-.568,2.045-1.112,4.094-1.661,6.143" transform="translate(748.86 553.927)" fill="#40425a"/>
          <path id="path264" d="M144.2-193.06c.579-1.946,1.151-3.9,1.746-5.836-.6,1.94-1.167,3.89-1.746,5.836" transform="translate(759.139 552.462)" fill="#40425a"/>
          <path id="path266" d="M141.549-201.2c.64-2.052,1.274-4.107,1.933-6.153-.657,2.046-1.293,4.1-1.933,6.153" transform="translate(764.49 551.734)" fill="#40425a"/>
          <path id="path268" d="M151.486-167.211c.518-2.039,1.031-4.078,1.567-6.114-.536,2.036-1.048,4.075-1.567,6.114" transform="translate(744.126 554.664)" fill="#40425a"/>
          <path id="path270" d="M157.745-141.012c.456-2.153.908-4.308,1.383-6.456-.475,2.148-.927,4.3-1.383,6.456" transform="translate(731.253 556.89)" fill="#40425a"/>
          <path id="path272" d="M165.878-96.6c.345-2.424.689-4.849,1.059-7.268-.369,2.42-.714,4.844-1.059,7.268" transform="translate(714.611 560.644)" fill="#40425a"/>
          <path id="path274" d="M164.481-105.479c.372-2.387.744-4.774,1.141-7.156-.4,2.382-.769,4.77-1.141,7.156" transform="translate(717.443 559.889)" fill="#40425a"/>
          <path id="path276" d="M129.812-236.311c.556-1.483,1.1-2.969,1.665-4.449-.564,1.48-1.109,2.966-1.665,4.449" transform="translate(789.242 548.857)" fill="#40425a"/>
          <path id="path278" d="M167.157-87.765c.314-2.441.63-4.883.969-7.321-.339,2.439-.655,4.88-.969,7.321" transform="translate(712.033 561.4)" fill="#40425a"/>
          <path id="path280" d="M162.97-114.026c.416-2.453.831-4.9,1.271-7.35-.44,2.447-.856,4.9-1.271,7.35" transform="translate(720.464 559.137)" fill="#40425a"/>
          <path id="path282" d="M161.345-123.181c.423-2.307.844-4.614,1.289-6.915-.445,2.3-.866,4.608-1.289,6.915" transform="translate(723.838 558.386)" fill="#40425a"/>
          <path id="path284" d="M132.915-228.466c.479-1.332.949-2.67,1.436-4-.488,1.329-.957,2.667-1.436,4" transform="translate(782.999 549.571)" fill="#40425a"/>
          <path id="path286" d="M135.906-219.871c.489-1.419.967-2.843,1.466-4.259-.5,1.416-.976,2.84-1.466,4.259" transform="translate(776.729 550.289)" fill="#40425a"/>
          <path id="path288" d="M606.956-155.088c-17.509-2.817-36.8-.145-54.215,2.795-4.383.739-8.848,1.5-12.79,3.438a38.4,38.4,0,0,0-8.082,5.729c-3.733,3.235-28.427,23.754-18.028,27.213,3.916,1.3,7.215-2.893,10.228-4.627,8.751-5.033,19.282-12.529,29.555-14.268a68.331,68.331,0,0,1,25.271.988c1.567.359,3.413,1.061,3.606,2.543a3.16,3.16,0,0,1-.523,1.883c-3.8,6.8-11.175,4.89-18.142,6.5a5.66,5.66,0,0,0-2.278.906c-1.754,1.394-.966,4.179.739,5.614,3.7,3.124,10.4,3.774,15.24,3.437,9.84-.683,19.142-4.738,27.907-8.661" transform="translate(-100.576 556.131)" fill="#f89e6f"/>
          <path id="path290" d="M516.049-162.311s-3.15-.466-14.06,1.311c0,0,.03,33.917,7.823,39.812l9.931-2.057-3.694-39.066" transform="translate(-3.247 555.607)" fill="#1bb3a9"/>
          <path id="path292" d="M308.739-153.967c24.272-4.812,48.857-7.782,73.467-10.214,19.036-1.893,37.6-5.639,56.59-6.663,1.906-.1,4.01-.291,5.326-1.673a7.639,7.639,0,0,0,1.578-3.72c5.378-23.865,10.067-47.93,17.1-71.387,5.771-19.256,13.279-46.43,28.638-60.642,11.534-10.673,26.285-11.7,33.973,4.217,3.568,7.388,3.157,16.011,2.4,24.182a374.067,374.067,0,0,1-20.151,90.952,373.915,373.915,0,0,1-17.919,41.968C484.1-135.7,479.624-122.2,469.947-113.778c-9.01,7.845-18.3,6.009-29.077,6.594-11.468.623-22.886-.254-34.351.1-17.908.559-35.82,1.257-53.74,1.079q-12.182-.121-24.363-.242l-12.581-.125c-3.856-.039-6.651.905-8.808-2.221-7.177-10.392-7.849-28.448-6.509-40.461a4.941,4.941,0,0,1,.812-2.594,5.108,5.108,0,0,1,3.07-1.439q2.168-.452,4.34-.883" transform="translate(207.599 542.365)" fill="#afd0cb"/>
          <path id="path294" d="M404.363-78.872S219.735-51.881,165.773-2.195H534.736l6.383-29.652L404.363-78.872" transform="translate(340.543 562.797)" fill="#494e67"/>
          <path id="path296" d="M258.387-321.843a38.381,38.381,0,0,0,5.768,8.509c7.377,8.023,18.43,8.6,28.712,8.192a44.048,44.048,0,0,0,14.555-2.672,35.545,35.545,0,0,0,14.36-11.032L323.1-297.21l-11.446,95.05L310.93-11.4a181.537,181.537,0,0,1-34.673-5.292c-3.845-1.012-10.951-14.4-10.951-14.4S258-22.818,254.539-24.369a174.163,174.163,0,0,1-16.668-8.644s3.168-220.954,20.516-288.831" transform="translate(480.253 541.876)" fill="#1bb3a9"/>
          <path id="path298" d="M265.621-297.464l7.832-5.753,9.807-.058,6.719,6.457-6.459,12.912-12.636-.744-5.263-12.813" transform="translate(483.239 543.475)" fill="#1c7aaa"/>
          <path id="path300" d="M281.712-286.127l12.636.744,15.8,138.636-27.722,23.662-25.41-24.21,24.694-138.833" transform="translate(472.41 544.951)" fill="#1890c4"/>
          <path id="path302" d="M304.169-340.26s-.413-4.547-36.816-6.136c0,0-26.982-.853-32.511,6.31l6.081,29.666,19.027,7.194,42.456-26.135,1.762-10.9" transform="translate(502.477 539.759)" fill="#16b09d"/>
          <path id="path304" d="M234.685-343.512c1.054-8.408,1.874-17.758,1.209-23.115l61.992.8a146.186,146.186,0,0,0-4.262,18.2,46.993,46.993,0,0,1-27.008,10.558c-10.951.724-21.874-1.93-31.931-6.437" transform="translate(508.931 538.02)" fill="#f68142"/>
          <path id="path306" d="M240.9-327.252s1.49-8.282,2.68-17.766c10.057,4.507,20.981,7.161,31.931,6.437a46.993,46.993,0,0,0,27.008-10.558c-1.258,7.5-2.062,16.2-1.06,23.8L302-316.5a35.545,35.545,0,0,1-14.36,11.032,44.047,44.047,0,0,1-14.555,2.672c-10.282.408-21.335-.169-28.712-8.192a38.383,38.383,0,0,1-5.768-8.509c.731-2.863,1.5-5.461,2.3-7.759" transform="translate(500.031 539.526)" fill="#f89e6f"/>
          <path id="path308" d="M204.111-444.962l.3-.546c26.275-28.85,64.543-30.971,80.415-30.467a5.643,5.643,0,0,1,5.241,7.144c-7.115,26.329,1.329,45.49,6.847,54.414a3.693,3.693,0,0,0,6.463-.4c9.049-18.905,19.166-4.3,19.166-4.3a41.533,41.533,0,0,1,.226,31.16c-1.45,3.607-4.189,8.031-7.962,8.971,0,0-7.9.921-13-2.408,0,0-.272,12.166-5.19,20.876a64.041,64.041,0,0,1-14.916,16c-1.81,1.37-3.691,2.644-5.572,3.917a40.124,40.124,0,0,1-49.1-3.657c-12.318-11.217-16.3-27.685-18.512-43.525-1.329-9.536-2.4-19.11-3.106-28.711q-.53-7.2-.789-14.412c-.07-1.987-1.413-11.466-.511-14.051" transform="translate(514.672 528.599)" fill="#f89e6f"/>
          <path id="path310" d="M214.791-471.842a56.646,56.646,0,0,0-6.977.07c-1.521.109-4.007.346-5.53.333-1.422-.013-2.946.421-4.376.211-7.949-1.163,1.45-12.076,3.318-14.722a115.1,115.1,0,0,1,9.3-11.552,91.2,91.2,0,0,1,23.086-18.39q.78-.428,1.568-.837A68.311,68.311,0,0,1,288.139-521c9.966,3.206,17.748,8.05,26.094,14.222q1.125-4.959,2.253-9.918c.372-1.642.872-3.464,2.324-4.315a1.663,1.663,0,0,1,1.079-.265c.71.113,1.132.843,1.389,1.515,1.832,4.814.324,10.182-1.193,15.1,1.228-2.906,2.967-6.223,6.092-6.654a1.52,1.52,0,0,1,1.238.252c.5.459.333,1.279.1,1.922a29.961,29.961,0,0,1-4.43,7.7c9.978,1.2,18.29,8.971,22.43,18.128s4.7,19.531,4.171,29.567c-.754,14.3-3.751,27.693-12.8,38.791,0,0-10.117-14.607-19.166,4.3a3.693,3.693,0,0,1-6.463.4c-5.517-8.923-13.961-28.085-6.847-54.414a5.643,5.643,0,0,0-5.241-7.144c-15.872-.5-54.14,1.618-80.415,30.467l-5.076,4.546a3.247,3.247,0,0,1-4.947-.491,6.939,6.939,0,0,1-.817-2.87c-1.266-10.167-.831-24.027,6.868-31.685" transform="translate(500.319 524.432)" fill="#a44931"/>
          <path id="path312" d="M232.011-386.491q-.626,3.258-1.253,6.52c-.875,4.547-2.621,11.374-7.339,13.326-3.6,1.487-6.4.623-9.422-1.648l-.177.271c4.918-8.711,5.19-20.876,5.19-20.876,5.1,3.329,13,2.408,13,2.408" transform="translate(597.466 536.102)" fill="#a44931"/>
          <path id="path314" d="M285.279-423.446q-2,5.969-3.787,12.014-1.835,6.03-3.515,12.1l-1.662,6.079a10.541,10.541,0,0,0-.358,1.735,4.088,4.088,0,0,0,.416,2.411,4.441,4.441,0,0,0,1.674,1.612c.526.29,1,.543,1.525.776a18.639,18.639,0,0,0,13.016,1.033l-.259-1.348a21.4,21.4,0,0,1-11.49-2.278c-.837-.433-1.846-1.053-1.836-1.228a3.674,3.674,0,0,1,.261-1.985l1.6-6.069q1.568-6.078,3-12.192,1.479-6.1,2.731-12.28l-1.318-.382" transform="translate(469.435 533.127)" fill="#d25640"/>
          <path id="path316" d="M297.849-424.623a4.805,4.805,0,0,0,5.106,4.483,4.8,4.8,0,0,0,4.482-5.1,4.8,4.8,0,0,0-5.1-4.483,4.806,4.806,0,0,0-4.483,5.1" transform="translate(430.777 532.586)" fill="#672823"/>
          <path id="path318" d="M263.8-426.831a4.806,4.806,0,0,0,5.1,4.483,4.8,4.8,0,0,0,4.483-5.1,4.8,4.8,0,0,0-5.1-4.483,4.806,4.806,0,0,0-4.483,5.1" transform="translate(501.807 532.395)" fill="#672823"/>
          <path id="path320" d="M312.3-448.356a9.058,9.058,0,0,0-4.811,1.044,19.516,19.516,0,0,0-4.078,2.679,17.358,17.358,0,0,0-5.287,7.7.7.7,0,0,0,.448.882.7.7,0,0,0,.746-.207l.007-.009a20.643,20.643,0,0,1,6.389-4.977,18.814,18.814,0,0,1,3.6-1.357,22.336,22.336,0,0,0,3.591-1.112l.151-.068a2.4,2.4,0,0,0,1.2-3.17,2.4,2.4,0,0,0-1.962-1.4" transform="translate(423.475 530.98)" fill="#8b2e25"/>
          <path id="path322" d="M258.781-446.574a22.038,22.038,0,0,0,3.7.64,18.819,18.819,0,0,1,3.746.88,20.6,20.6,0,0,1,6.979,4.11l.009.007a.7.7,0,0,0,.986-.056.7.7,0,0,0,.11-.766,17.331,17.331,0,0,0-6.237-6.951,19.491,19.491,0,0,0-4.391-2.13,9.064,9.064,0,0,0-4.9-.416,2.4,2.4,0,0,0-1.807,2.87,2.4,2.4,0,0,0,1.644,1.764l.162.048" transform="translate(508.289 530.718)" fill="#8b2e25"/>
          <path id="path324" d="M253.568-374.274a2.67,2.67,0,0,1,2.046-4.085c17.056-1.432,26.384-5.022,30.926-7.456a2.66,2.66,0,0,1,3.849,1.794c-7.278,5.3-20.3,12.151-36.822,9.747" transform="translate(496.367 536.34)" fill="#fff"/>
          <path id="path326" d="M289.916-384.188a2.674,2.674,0,0,1,.064.633,18.676,18.676,0,0,1-2.853,9.634,24.028,24.028,0,0,0-10.27.931,27.794,27.794,0,0,0-11.222,6.984,19.057,19.057,0,0,1-12.5-8.356l-.039-.08c16.519,2.4,29.543-4.443,36.822-9.747" transform="translate(496.841 536.508)" fill="#6b2a30"/>
          <path id="path328" d="M277.214-374.72c-2.289,3.486-6.294,6.518-13.22,7.8a22.92,22.92,0,0,1-8.272.116,27.794,27.794,0,0,1,11.222-6.984,24.028,24.028,0,0,1,10.27-.931" transform="translate(506.754 537.306)" fill="#f14373"/>
          <path id="path330" d="M210.1-392.94a7.517,7.517,0,0,0,3.856-1.823,11.517,11.517,0,0,0,2.627-3.5,20.888,20.888,0,0,0,2.149-8.69c.013-.494,0-.992-.02-1.492a16.074,16.074,0,0,1-8.276,6.124.65.65,0,0,1-.775-.339.644.644,0,0,1,.307-.859,13.571,13.571,0,0,0,5.455-4.8,15.416,15.416,0,0,0,1.648-3.336,14.38,14.38,0,0,0,.539-1.861,3.3,3.3,0,0,0-.634-2.052,7.538,7.538,0,0,0-6.585-4.289.65.65,0,0,1-.585-.466.654.654,0,0,1,.452-.814,7.209,7.209,0,0,1,5.264.474,8.719,8.719,0,0,1,3.761,3.881,17.409,17.409,0,0,1,1.574,4.9,22.593,22.593,0,0,1,.324,5.031,21.336,21.336,0,0,1-2.8,9.581c-1.6,2.917-4.62,5.522-8.194,5.61a.643.643,0,0,1-.653-.553.646.646,0,0,1,.565-.73" transform="translate(612.927 533.302)" fill="#d25640"/>
          <path id="path332" d="M160.411-9.654c.514,21.431,75.7,16,99.665,13.727a7.419,7.419,0,0,0,6.695-7.962L245.046-287.026c-17.266-24.152-65.026-40.2-65.026-40.2S155.2-226.632,160.411-9.654" transform="translate(621.475 541.412)" fill="#bbdbd6"/>
          <path id="path334" d="M360.956-328.987C359.01-315.84,341.047-87.495,346.943-23.865a5.35,5.35,0,0,1-6.231,5.768c-9.969-1.717-28.315-6.12-40.836-16.481a12.824,12.824,0,0,1-4.531-10.055c.423-38.679,7.5-251.033,65.612-284.353" transform="translate(379.979 541.261)" fill="#bbdbd6"/>
          <path id="path336" d="M396.915-100.215c-.262-.659-5.759-2.108-6.741-2.572a64.183,64.183,0,0,0-8.2-2.837A81.293,81.293,0,0,0,364.76-109.3c-2.188-.19-4.567-.2-6.356,1.072-7.487,5.337,9.287,11.517,12.24,13.252a9.688,9.688,0,0,1,3.387,2.789,3.437,3.437,0,0,1-.048,4.108,4.933,4.933,0,0,1-2.547,1.184c-7.335,2.62-14.27,2.419-21.848,2.883-8.134.5-15.74-2.069-23.813-2.841-1.715-.164-3.636-.167-4.918.986-2.155,1.937-.969,5.629,1.066,7.048,2.877,2.006,6.66,2.468,9.954,3.431,9.579,2.8,19.466,4.3,29.3,5.885-2.828-.455-6.425.372-9.307.486-8.477.338-16.969-.6-25.5-.925a7.19,7.19,0,0,0-3.471.442c-5.141,2.534-.443,6.785,2.607,8.316A34.952,34.952,0,0,0,334.6-58.35a87.35,87.35,0,0,0,27.05.946,55.316,55.316,0,0,1-16.428,3.655c-2.786.264-5.583.426-8.376.6-2.245.143-5.7-.085-6.7,2.524a2.729,2.729,0,0,0-.188,1.106c.125,2.327,3.575,3.9,5.477,4.7a28.83,28.83,0,0,0,10.025,1.82,65.147,65.147,0,0,0,28.043-5.316c-4.342,4.212-9.61,6.73-15.242,8.72a61.445,61.445,0,0,1-12.9,3.042c-1.577.2-4.382,1.113-3.3,3.256.82,1.624,4.059,2.2,5.641,2.462,11.767,1.923,23.146-2.751,32.8-9.007,11.555-7.491,22.96-16.3,29.022-28.667l-12.61-31.71" transform="translate(304.944 560.168)" fill="#f89e6f"/>
          <path id="path338" d="M322.753-108.712s-3.18.174-13.514,4.1c0,0,6.818,33.226,15.633,37.44l9.319-4-11.437-37.535" transform="translate(391.652 560.227)" fill="#1bb3a9"/>
          <path id="path340" d="M143.112-97.107c44.472-19.085,91.222-35.413,138.83-43.495a524.911,524.911,0,0,1-19.514-90.323q-2.822-22.5-3.694-45.19c-.381-9.9-3.994-26.549,8.512-30.769,16.448-5.551,31.131,17.63,37.234,29.571,14.564,28.486,20.339,60.067,26.178,91.157,2.211,11.775,3.955,23.647,6.312,35.384,2.308,11.488,3.8,23.188,3.095,34.923a19.392,19.392,0,0,1-1.238,6.611c-2.95,6.789-10.482,12.491-16.706,16.047-7.611,4.347-15.788,6.607-23.87,9.721-9.284,3.58-19.079,5.706-28.822,7.872-24.536,5.451-49,11.933-73.559,16.7l-23.919,4.639-12.351,2.4c-3.787.734-6.337,2.219-9.075-.411-9.11-8.748-13.382-26.3-14.476-38.341a4.959,4.959,0,0,1,.278-2.706,5.1,5.1,0,0,1,2.721-2.024q2.029-.884,4.063-1.758" transform="translate(573.767 543.091)" fill="#d0efe6"/>
          <path id="path342" d="M232.778-327.227s-12.093,3.1-18.981,182.623l37.158-99.449L234.8-257.721l25.988-15.547s-2.8-32.117-28.008-53.959" transform="translate(568.717 541.412)" fill="#d0efe6"/>
          <path id="path344" d="M328.126-328.967S321.958-264,316.209-145.749l-19.952-104.27,18.22-10.765-18.848-20.91s8.512-41.971,32.5-47.273" transform="translate(412.498 541.262)" fill="#d0efe6"/>
          <path id="path346" d="M247.175-183.873l5.076.8c-.311,2.156-1.332,10.227-1.5,11.647-.236,1.954.852,3.713,1.975,4.071l1.657.531a2.567,2.567,0,0,1,1.661,3.228,2.569,2.569,0,0,1-3.228,1.662l-1.655-.531c-3.657-1.167-6.024-5.284-5.507-9.575.2-1.638,1.227-9.756,1.525-11.834" transform="translate(538.821 553.756)" fill="#b29ca0"/>
          <path id="path348" d="M242.634-161.864l4.3.97c2.1.475,4.077-.542,4.391-2.259l.366-2c.314-1.716-1.148-3.507-3.248-3.984l-4.3-.969c-2.1-.475-4.075.543-4.391,2.259l-.365,2c-.314,1.717,1.147,3.509,3.248,3.982" transform="translate(550.026 554.931)" fill="#262843"/>
          <path id="path350" d="M210.672-175.973l-5.115-.484c-.235,2.165-1.248,10.235-1.435,11.656-.256,1.949-1.746,3.384-2.925,3.452l-1.735.1a2.566,2.566,0,0,0-2.411,2.714,2.569,2.569,0,0,0,2.714,2.413l1.735-.1c3.833-.224,7.148-3.625,7.713-7.91.214-1.633,1.232-9.755,1.46-11.841" transform="translate(637.024 554.394)" fill="#b29ca0"/>
          <path id="path352" d="M212.45-156.183l-4.405-.127c-2.152-.062-3.814-1.536-3.693-3.279l.142-2.023c.122-1.741,1.982-3.113,4.136-3.051l4.4.126c2.152.062,3.814,1.538,3.693,3.277l-.14,2.026c-.122,1.741-1.982,3.113-4.136,3.051" transform="translate(623.036 555.409)" fill="#262843"/>
          <path id="path354" d="M220.464-238.094a17.77,17.77,0,0,1,14.77-2.934c24.911,5.878,25.652,42.442,22.986,70.707a3.165,3.165,0,0,1-3.652,2.827,3.172,3.172,0,0,1-2.657-3.439c3.134-33.462-.6-59.788-18.134-63.925a11.5,11.5,0,0,0-9.685,1.962c-13.155,9.184-19.406,35.027-22.322,53.862a3.164,3.164,0,0,1-3.625,2.644h0a3.165,3.165,0,0,1-2.643-3.6c3.245-21.112,10.03-47.671,24.964-58.1" transform="translate(590.149 548.79)" fill="#272633"/>
          <path id="path356" d="M210.927-325.333a40.355,40.355,0,0,1,8.36,9.154,25.69,25.69,0,0,1,1.675,2.608,28.61,28.61,0,0,1,1.593,2.659,59.388,59.388,0,0,1,2.7,5.607,48.61,48.61,0,0,1,2.152,5.869l.888,3.011.445,1.5.308,1.547,1.242,6.179L231-280.9c.094,1.053.292,2.09.3,3.153l.109,3.176.236,6.353-.232,6.375-.116,3.189-.056,1.594-.168,1.59c-.217,2.123-.465,4.242-.655,6.367l-.3,3.187-.151,1.6-.249,1.583c-.675,4.224-1.345,8.451-1.959,12.7l-.016.112a1.938,1.938,0,0,0,1.641,2.2,1.944,1.944,0,0,0,2.177-1.532c.866-4.263,1.674-8.544,2.479-12.826.739-4.294,1.154-8.653,1.673-12.988l.184-1.628.075-1.641.148-3.281.294-6.567-.185-6.59a52.584,52.584,0,0,0-.455-6.586l-.794-6.572-1.376-6.505-.361-1.623-.5-1.592-1-3.183a52.843,52.843,0,0,0-2.424-6.234,45.643,45.643,0,0,0-7.044-11.427,26.491,26.491,0,0,0-10.812-7.984.64.64,0,0,0-.82.379.64.64,0,0,0,.2.718l.085.068" transform="translate(596.56 541.472)" fill="#272633"/>
          <path id="path358" d="M336.431-325.793a27.149,27.149,0,0,0-11.941,6.307,25.9,25.9,0,0,0-2.481,2.317c-.772.823-1.61,1.6-2.307,2.489L317.632-312l-1.024,1.351-.886,1.432a78.209,78.209,0,0,0-10.188,24.652c-.268,1.076-.6,2.142-.815,3.228l-.563,3.27-1.093,6.546-.585,6.589-.29,3.294a30.2,30.2,0,0,0-.185,3.293c-.048,4.392-.2,8.795-.027,13.177.255,4.376.513,8.751.831,13.114a1.937,1.937,0,0,0,2.072,1.793,1.936,1.936,0,0,0,1.8-1.958v-.123c-.069-4.31-.2-8.611-.33-12.91a30.633,30.633,0,0,1,.017-3.221l.116-3.216c.087-2.143.116-4.288.175-6.431a28.857,28.857,0,0,1,.208-3.2l.308-3.192.62-6.382,1.111-6.292.537-3.147c.2-1.046.51-2.059.759-3.09.537-2.049,1.025-4.118,1.6-6.156l2.111-5.972a70.413,70.413,0,0,1,5.554-11.285l.8-1.354.922-1.261L323-312c.6-.857,1.348-1.58,2-2.389a22.844,22.844,0,0,1,2.074-2.33,41.9,41.9,0,0,1,9.714-7.843l.088-.049a.638.638,0,0,0,.235-.872.642.642,0,0,0-.685-.307" transform="translate(396.618 541.535)" fill="#272633"/>
          <path id="path360" d="M317.519-240.471a14.974,14.974,0,0,0,15.976,13.9,14.974,14.974,0,0,0,13.9-15.977,14.972,14.972,0,0,0-15.976-13.9,14.971,14.971,0,0,0-13.9,15.974" transform="translate(369.46 547.504)" fill="#a5a9a8"/>
          <path id="path362" d="M320.615-240.972A11.6,11.6,0,0,0,332.993-230.2a11.6,11.6,0,0,0,10.77-12.379,11.6,11.6,0,0,0-12.38-10.77,11.6,11.6,0,0,0-10.768,12.38" transform="translate(369.727 547.771)" fill="#dddad8"/>
          <path id="path364" d="M325.627-241.784a6.145,6.145,0,0,0,6.556,5.7,6.147,6.147,0,0,0,5.7-6.557,6.144,6.144,0,0,0-6.556-5.7,6.143,6.143,0,0,0-5.7,6.554" transform="translate(370.16 548.204)" fill="#131112"/>
          <path id="path366" d="M276.174-340.748l3.135,18.377L252.83-285.488l-20.875-18.226,44.219-37.035" transform="translate(530.472 540.248)" fill="#20b4ae"/>
          <path id="path368" d="M307.445-303.728l-19.1,12.651-12.791-32.356,6.782-17.156,25.108,36.861" transform="translate(454.982 540.262)" fill="#20b4ae"/>
        </g>
      </g>
      <path id="Union_3" data-name="Union 3" d="M-2220.687,93V62.653H-2253V31.327h32.313V0h30.354V31.327H-2159V62.653h-31.333V93Z" transform="translate(3192 108)" fill="url(#linear-gradient)"/>
      <path id="Union_5" data-name="Union 5" d="M-2228.937,69V46.484H-2253V23.242h24.063V0h22.6V23.242H-2183V46.484h-23.333V69Z" transform="translate(3369 39)" fill="url(#linear-gradient)"/>
      <g id="Union_4" data-name="Union 4" transform="translate(3269 -14)" fill="none">
        <path d="M-2228.938,69V46.484H-2253V23.242h24.062V0h22.6V23.242H-2183V46.484h-23.333V69Z" stroke="none"/>
        <path d="M -2208.333251953125 67.00040435791016 L -2208.333251953125 44.48421478271484 L -2185.00048828125 44.48421478271484 L -2185.00048828125 25.24243545532227 L -2208.333251953125 25.24243545532227 L -2208.333251953125 2.000002145767212 L -2226.937744140625 2.000002145767212 L -2226.937744140625 25.24243545532227 L -2251 25.24243545532227 L -2251 44.48421478271484 L -2226.937744140625 44.48421478271484 L -2226.937744140625 67.00040435791016 L -2208.333251953125 67.00040435791016 M -2206.333251953125 69.00040435791016 L -2228.937744140625 69.00040435791016 L -2228.937744140625 46.48421478271484 L -2253 46.48421478271484 L -2253 23.24243545532227 L -2228.937744140625 23.24243545532227 L -2228.937744140625 2.178955128329108e-06 L -2206.333251953125 2.178955128329108e-06 L -2206.333251953125 23.24243545532227 L -2183.00048828125 23.24243545532227 L -2183.00048828125 46.48421478271484 L -2206.333251953125 46.48421478271484 L -2206.333251953125 69.00040435791016 Z" stroke="none" fill="#4525a9"/>
      </g>
      <path id="Union_8" data-name="Union 8" d="M-2220.687,93V62.653H-2253V31.327h32.313V0h30.354V31.327H-2159V62.653h-31.333V93Z" transform="translate(3940 972)" fill="url(#linear-gradient)"/>
      <path id="Union_9" data-name="Union 9" d="M-2231.688,61V41.095H-2253V20.548h21.312V0h20.021V20.548H-2191V41.095h-20.666V61Z" transform="translate(3760 929)" fill="url(#linear-gradient)"/>
      <path id="Union_7" data-name="Union 7" d="M-2228.937,69V46.484H-2253V23.242h24.063V0h22.6V23.242H-2183V46.484h-23.333V69Z" transform="translate(4103 937)" fill="url(#linear-gradient)"/>
      <g id="Union_6" data-name="Union 6" transform="translate(4017 850)" fill="none">
        <path d="M-2228.938,69V46.484H-2253V23.242h24.062V0h22.6V23.242H-2183V46.484h-23.333V69Z" stroke="none"/>
        <path d="M -2208.333251953125 67.00040435791016 L -2208.333251953125 44.48421478271484 L -2185.00048828125 44.48421478271484 L -2185.00048828125 25.24243545532227 L -2208.333251953125 25.24243545532227 L -2208.333251953125 2.000002145767212 L -2226.937744140625 2.000002145767212 L -2226.937744140625 25.24243545532227 L -2251 25.24243545532227 L -2251 44.48421478271484 L -2226.937744140625 44.48421478271484 L -2226.937744140625 67.00040435791016 L -2208.333251953125 67.00040435791016 M -2206.333251953125 69.00040435791016 L -2228.937744140625 69.00040435791016 L -2228.937744140625 46.48421478271484 L -2253 46.48421478271484 L -2253 23.24243545532227 L -2228.937744140625 23.24243545532227 L -2228.937744140625 2.178955128329108e-06 L -2206.333251953125 2.178955128329108e-06 L -2206.333251953125 23.24243545532227 L -2183.00048828125 23.24243545532227 L -2183.00048828125 46.48421478271484 L -2206.333251953125 46.48421478271484 L -2206.333251953125 69.00040435791016 Z" stroke="none" fill="#4525a9"/>
      </g>
    </g>
  </g>
</svg>
